<svg id="Layer_1" enable-background="new 0 0 512 512" height="512" viewBox="0 0 512 512" width="512" xmlns="http://www.w3.org/2000/svg"><g><path d="m80 391.543v-167c0-55.229 45.402-100 100.63-100h-58c-55.229 0-100 44.771-100 100v167c0 55.229 44.771 100 100 100h58c-55.228 0-100.63-44.771-100.63-100z" fill="#cee1f2"/><path d="m181 512h-61c-66.168 0-120-53.832-120-120v-164c0-66.168 53.832-120 120-120h272c66.168 0 120 53.832 120 120v60c0 11.046-8.954 20-20 20s-20-8.954-20-20v-60c0-44.112-35.888-80-80-80h-272c-44.112 0-80 35.888-80 80v164c0 44.112 35.888 80 80 80h61c11.046 0 20 8.954 20 20s-8.954 20-20 20zm331-61v-52.824c0-33.733-27.443-61.176-61.176-61.176h-52.824c-11.046 0-20 8.954-20 20s8.954 20 20 20h52.824c11.676 0 21.176 9.5 21.176 21.176v52.824c0 11.046 8.954 20 20 20s20-8.954 20-20zm-69.545-12.197c7.628-7.988 7.336-20.648-.652-28.277-7.988-7.628-20.648-7.336-28.277.652-36.912 38.653-88.735 60.822-142.181 60.822h-9.345c-11.046 0-20 8.954-20 20s8.954 20 20 20h9.345c64.321 0 126.688-26.679 171.11-73.197zm-311.455-236.803c-13.807 0-25 11.193-25 25s11.193 25 25 25 25-11.193 25-25-11.193-25-25-25zm86 0c-13.807 0-25 11.193-25 25s11.193 25 25 25 25-11.193 25-25-11.193-25-25-25zm86 0c-13.807 0-25 11.193-25 25s11.193 25 25 25 25-11.193 25-25-11.193-25-25-25zm-172 86c-13.807 0-25 11.193-25 25s11.193 25 25 25 25-11.193 25-25-11.193-25-25-25zm0 86c-13.807 0-25 11.193-25 25s11.193 25 25 25 25-11.193 25-25-11.193-25-25-25zm86-86c-13.807 0-25 11.193-25 25s11.193 25 25 25 25-11.193 25-25-11.193-25-25-25zm0 86c-13.807 0-25 11.193-25 25s11.193 25 25 25 25-11.193 25-25-11.193-25-25-25zm86-86c-13.807 0-25 11.193-25 25s11.193 25 25 25 25-11.193 25-25-11.193-25-25-25z" fill="#1428bf"/><path d="m182 80c-11.046 0-20-8.954-20-20 0-11.028-8.972-20-20-20s-20 8.972-20 20c0 11.046-8.954 20-20 20s-20-8.954-20-20c0-33.084 26.916-60 60-60s60 26.916 60 60c0 11.046-8.954 20-20 20zm250-20c0-33.084-26.916-60-60-60s-60 26.916-60 60c0 11.046 8.954 20 20 20s20-8.954 20-20c0-11.028 8.972-20 20-20s20 8.972 20 20c0 11.046 8.954 20 20 20s20-8.954 20-20zm-43 142c-13.807 0-25 11.193-25 25s11.193 25 25 25 25-11.193 25-25-11.193-25-25-25z" fill="#ff5cf0"/></g></svg>