<svg id="Layer_1" enable-background="new 0 0 512 512" height="512" viewBox="0 0 512 512" width="512" xmlns="http://www.w3.org/2000/svg"><g><path d="m124 392.041v-272.082c0-55.206 44.644-99.959 99.716-99.959h-60.716c-55.229 0-100 44.771-100 100v272c0 55.228 44.771 100 100 100h60.716c-55.072 0-99.716-44.753-99.716-99.959z" fill="#cee1f2"/><path d="m348 512h-184c-66.168 0-120-53.832-120-120v-272c0-66.168 53.832-120 120-120h184c66.168 0 120 53.832 120 120v272c0 66.168-53.832 120-120 120zm-184-472c-44.112 0-80 35.888-80 80v272c0 44.112 35.888 80 80 80h184c44.112 0 80-35.888 80-80v-272c0-44.112-35.888-80-80-80zm223 144c0-11.046-8.954-20-20-20h-34c-16.542 0-30-13.458-30-30v-34c0-11.046-8.954-20-20-20s-20 8.954-20 20v34c0 38.598 31.402 70 70 70h34c11.046 0 20-8.954 20-20zm-73 213v-108c0-11.046-8.954-20-20-20s-20 8.954-20 20v108c0 11.046 8.954 20 20 20s20-8.954 20-20zm74 0v-48c0-11.046-8.954-20-20-20s-20 8.954-20 20v48c0 11.046 8.954 20 20 20s20-8.954 20-20zm-224 0v-78c0-11.046-8.954-20-20-20s-20 8.954-20 20v78c0 11.046 8.954 20 20 20s20-8.954 20-20z" fill="#1428bf"/><path d="m219 417c-11.046 0-20-8.954-20-20v-168c0-11.046 8.954-20 20-20s20 8.954 20 20v168c0 11.046-8.954 20-20 20z" fill="#ff5cf0"/></g></svg>