<svg id="Layer_1" enable-background="new 0 0 512.001 512.001" height="512" viewBox="0 0 512.001 512.001" width="512" xmlns="http://www.w3.org/2000/svg"><g><path d="m82.512 258.318c-1.156-120.338 88.885-220.859 204.953-236.264-10.279-1.348-20.779-2.054-31.465-2.054-130.642 0-237.245 107.445-235.988 238.318l-.012 233.682 3.912-3.912c16.314-16.314 36.9-26.689 58.59-30.513z" fill="#cee1f2"/><path d="m19.996 512.001c-2.577 0-5.175-.498-7.65-1.523-7.474-3.096-12.346-10.389-12.346-18.479l.012-233.596c-.629-68.591 25.751-133.356 74.289-182.363 48.567-49.035 113.096-76.04 181.699-76.04 69.114 0 133.742 26.821 181.979 75.522 48.39 48.857 74.674 113.844 74.01 182.988-.653 68.094-27.73 131.89-76.244 179.638-48.39 47.627-112.555 73.852-180.684 73.852-.081 0-.166 0-.247 0-40.3.001-78.774-9.038-114.35-26.866-33.992-17.035-75.147-10.167-102.409 17.097l-3.912 3.912c-3.826 3.825-8.943 5.857-14.147 5.858zm81.271-76.15c19.422 0 38.962 4.423 57.119 13.523 29.959 15.014 62.408 22.626 96.446 22.626.064.001.145 0 .207 0 118.521.009 215.818-95.917 216.951-213.874.561-58.388-21.611-113.241-62.432-154.455-40.665-41.059-95.2-63.671-153.558-63.671-57.847 0-112.282 22.796-153.279 64.188-40.995 41.391-63.266 96.06-62.71 153.938.001.064.001.129.001.193l-.01 193.067c18.952-10.247 40.036-15.535 61.265-15.535z" fill="#1428bf"/><path d="m256 362.93c-13.417.001-26.829-4.19-38.025-12.574-46.197-34.591-71.085-76.022-71.971-119.813-.003-.135-.004-.27-.004-.404 0-35.918 29.159-65.139 65-65.139 17.448 0 33.313 6.91 45 18.138 11.688-11.228 27.552-18.138 45-18.138 35.841 0 65 29.221 65 65.138 0 .135-.001.27-.004.404-.886 43.791-25.773 85.223-71.972 119.814-11.192 8.381-24.61 12.573-38.024 12.574zm-69.999-132.977c.901 39.091 30.908 69.634 55.949 88.384 8.273 6.195 19.827 6.193 28.099.001 25.042-18.751 55.049-49.294 55.95-88.385-.098-13.776-11.275-24.953-24.999-24.953-13.785 0-25 11.215-25 25 0 11.046-8.954 20-20 20s-20-8.954-20-20c0-13.785-11.215-25-25-25-13.723 0-24.9 11.177-24.999 24.953z" fill="#ff5cf0"/></g></svg>