<svg id="Layer_1" enable-background="new 0 0 512 512" height="512" viewBox="0 0 512 512" width="512" xmlns="http://www.w3.org/2000/svg"><g><path d="m127.5 392.041v-272.082c0-55.206 42.644-99.959 97.716-99.959h-58.716c-55.229 0-100 44.771-100 100v272c0 55.228 44.771 100 100 100h58.716c-55.072 0-97.716-44.753-97.716-99.959z" fill="#cee1f2"/><path d="m345.5 512h-179c-66.168 0-120-53.832-120-120v-272c0-66.168 53.832-120 120-120h179c66.168 0 120 53.832 120 120v272c0 66.168-53.832 120-120 120zm-179-472c-44.112 0-80 35.888-80 80v272c0 44.112 35.888 80 80 80h179c44.112 0 80-35.888 80-80v-272c0-44.112-35.888-80-80-80zm148 259v-108c0-11.046-8.954-20-20-20s-20 8.954-20 20v108c0 11.046 8.954 20 20 20s20-8.954 20-20zm72 0v-48c0-11.046-8.954-20-20-20s-20 8.954-20 20v48c0 11.046 8.954 20 20 20s20-8.954 20-20zm-219 1v-78c0-11.046-8.954-20-20-20s-20 8.954-20 20v78c0 11.046 8.954 20 20 20s20-8.954 20-20z" fill="#1428bf"/><path d="m282.5 402c0 13.807-11.193 25-25 25s-25-11.193-25-25c0-13.807 11.193-25 25-25s25 11.193 25 25zm-41-102v-168c0-11.046-8.954-20-20-20s-20 8.954-20 20v168c0 11.046 8.954 20 20 20s20-8.954 20-20z" fill="#ff5cf4"/></g></svg>