<?xml version="1.0" encoding="utf-8"?>
<!-- Generator: Adobe Illustrator 22.0.1, SVG Export Plug-In . SVG Version: 6.00 Build 0)  -->
<svg version="1.1" id="Layer_1" xmlns="http://www.w3.org/2000/svg" xmlns:xlink="http://www.w3.org/1999/xlink" x="0px" y="0px"
	 viewBox="0 0 365 310" style="enable-background:new 0 0 365 310;" xml:space="preserve">
<style type="text/css">
	.st0{fill:#B5C8FF;}
	.st1{fill:none;stroke:#8DAEFF;stroke-width:2.61;stroke-linecap:round;stroke-linejoin:round;stroke-miterlimit:50;}
	.st2{fill:none;stroke:#7097F9;stroke-width:2.61;stroke-linecap:round;stroke-linejoin:round;stroke-miterlimit:50;}
	.st3{fill:none;stroke:#80A2F9;stroke-width:2.61;stroke-linecap:round;stroke-linejoin:round;stroke-miterlimit:50;}
	.st4{opacity:0.15;}
	.st5{fill:#020202;}
	.st6{fill:#FFFFFF;}
	.st7{fill:none;stroke:#073251;stroke-width:2.61;stroke-linecap:round;stroke-linejoin:round;stroke-miterlimit:50;}
	.st8{fill:#724F3D;}
	.st9{fill:#A86C4E;}
	.st10{fill:#D18660;}
	.st11{fill:#073251;}
	.st12{fill:#BD704A;}
	.st13{fill:#87898C;}
	.st14{fill:#00B8F0;}
	.st15{fill:#4ACFFF;}
	.st16{fill:#E04222;}
	.st17{fill:#FF6242;}
	.st18{fill:#BDBEC0;}
	.st19{fill:#00DBA8;}
	.st20{fill:#F0F0F0;}
	.st21{fill:#8BA4B8;}
</style>
<g>
	<g>
		<g>
			<g>
				<path class="st0" d="M353.6,168c0-92.8-74.8-168-167.1-168S19.4,75.2,19.4,168c0,24.7,5.4,48.2,14.9,69.3h304.4
					C348.3,216.2,353.6,192.7,353.6,168"/>
			</g>
			<g>
				<path class="st1" d="M21.5,237.3h325.8"/>
			</g>
			<g>
				<path class="st2" d="M2.7,237.3h10.4"/>
			</g>
			<g>
				<path class="st3" d="M355.7,237.3h10.4"/>
			</g>
			<g class="st4">
				<path class="st5" d="M213.2,301.1c0,4-21.5,7.2-48,7.2s-48-3.2-48-7.2s21.5-7.2,48-7.2S213.2,297.1,213.2,301.1"/>
			</g>
			<g>
				<path class="st6" d="M190.6,19.9c0.3-2.7-1.2-5.3-3.8-6.2c-4.6-1.7-12.6-4-21.6-4s-17,2.3-21.6,4c-2.5,0.9-4.1,3.5-3.8,6.2
					l2.3,18.8h46.1L190.6,19.9z"/>
			</g>
			<g>
				<path class="st7" d="M190.6,19.9c0.3-2.7-1.2-5.3-3.8-6.2c-4.6-1.7-12.6-4-21.6-4s-17,2.3-21.6,4c-2.5,0.9-4.1,3.5-3.8,6.2
					l2.3,18.8l0,0h46.1l0,0L190.6,19.9z"/>
			</g>
			<g>
				<path class="st8" d="M203.6,66.7c0-21.3-17.2-38.6-38.4-38.6s-38.4,17.3-38.4,38.6V86c0,10.7,8.6,19.3,19.2,19.3h38.4
					c10.6,0,19.2-8.6,19.2-19.3V66.7z"/>
			</g>
			<g>
				<path class="st9" d="M165.2,28.1c-21.2,0-38.4,17.3-38.4,38.6v12.1c0-21.3,17.2-38.6,38.4-38.6s38.4,17.3,38.4,38.6V66.7
					C203.6,45.4,186.4,28.1,165.2,28.1"/>
			</g>
			<g>
				<path class="st7" d="M203.6,66.7c0-21.3-17.2-38.6-38.4-38.6s-38.4,17.3-38.4,38.6V86c0,10.7,8.6,19.3,19.2,19.3h38.4
					c10.6,0,19.2-8.6,19.2-19.3V66.7z"/>
			</g>
			<g>
				<path class="st10" d="M194,68.2v-3.9c0-0.7,0-1.3-0.1-1.9c-12.8,0-23.8-6.4-28.8-17.4c-5,11-16,17.3-28.8,17.4
					c0,0.6-0.1,1.3-0.1,1.9v3.9c-2.7,0.6-4.8,2.9-4.8,5.8c0,3.1,2.4,5.6,5.4,5.9c2.7,13.2,14.3,23.1,28.2,23.1
					c13.9,0,25.5-9.9,28.2-23.1c3-0.3,5.4-2.8,5.4-5.9C198.8,71.1,196.7,68.7,194,68.2"/>
			</g>
			<g>
				<path class="st7" d="M194,68.2v-3.9c0-0.7,0-1.3-0.1-1.9c-12.8,0-23.8-6.4-28.8-17.4c-5,11-16,17.3-28.8,17.4
					c0,0.6-0.1,1.3-0.1,1.9v3.9c-2.7,0.6-4.8,2.9-4.8,5.8c0,3.1,2.4,5.6,5.4,5.9c2.7,13.2,14.3,23.1,28.2,23.1
					c13.9,0,25.5-9.9,28.2-23.1c3-0.3,5.4-2.8,5.4-5.9C198.8,71.1,196.7,68.7,194,68.2L194,68.2z"/>
			</g>
			<g>
				<path class="st11" d="M154.4,64.3c-2,0-3.6,1.6-3.6,3.6c0,0,0,0,0,0c0,2,1.6,3.6,3.6,3.6c2,0,3.6-1.6,3.6-3.6
					C158,65.9,156.4,64.3,154.4,64.3"/>
			</g>
			<g>
				<path class="st11" d="M176,64.3c-2,0-3.6,1.6-3.6,3.6c0,2,1.6,3.6,3.6,3.6c2,0,3.6-1.6,3.6-3.6c0,0,0,0,0,0
					C179.6,65.9,178,64.3,176,64.3"/>
			</g>
			<g>
				<path class="st12" d="M153.2,77.6c0,2-1.6,3.6-3.6,3.6c-2,0-3.6-1.6-3.6-3.6c0,0,0,0,0,0c0-2,1.6-3.6,3.6-3.6c0,0,0,0,0,0
					C151.6,74,153.2,75.6,153.2,77.6"/>
			</g>
			<g>
				<path class="st12" d="M184.4,77.6c0,2-1.6,3.6-3.6,3.6c-2,0-3.6-1.6-3.6-3.6c0,0,0,0,0,0c0-2,1.6-3.6,3.6-3.6c0,0,0,0,0,0
					C182.8,74,184.4,75.6,184.4,77.6"/>
			</g>
			<g>
				<path class="st7" d="M158,86.3c4.4,2.9,10.1,2.9,14.4,0"/>
			</g>
			<g>
				<path class="st7" d="M252.1,228.9h41.8"/>
			</g>
			<g>
				<path class="st13" d="M256.3,233.1c0,2.3-1.9,4.2-4.2,4.2s-4.2-1.9-4.2-4.2c0-2.3,1.9-4.2,4.2-4.2S256.3,230.7,256.3,233.1"/>
			</g>
			<g>
				<path class="st7" d="M256.3,233.1c0,2.3-1.9,4.2-4.2,4.2s-4.2-1.9-4.2-4.2c0-2.3,1.9-4.2,4.2-4.2S256.3,230.7,256.3,233.1z"/>
			</g>
			<g>
				<path class="st13" d="M277.2,233.1c0,2.3-1.9,4.2-4.2,4.2s-4.2-1.9-4.2-4.2c0-2.3,1.9-4.2,4.2-4.2S277.2,230.7,277.2,233.1"/>
			</g>
			<g>
				<path class="st7" d="M277.2,233.1c0,2.3-1.9,4.2-4.2,4.2s-4.2-1.9-4.2-4.2c0-2.3,1.9-4.2,4.2-4.2S277.2,230.7,277.2,233.1z"/>
			</g>
			<g>
				<path class="st13" d="M298.1,233.1c0,2.3-1.9,4.2-4.2,4.2s-4.2-1.9-4.2-4.2c0-2.3,1.9-4.2,4.2-4.2S298.1,230.7,298.1,233.1"/>
			</g>
			<g>
				<path class="st7" d="M298.1,233.1c0,2.3-1.9,4.2-4.2,4.2s-4.2-1.9-4.2-4.2c0-2.3,1.9-4.2,4.2-4.2S298.1,230.7,298.1,233.1z"/>
			</g>
			<g>
				<path class="st7" d="M273,228.9V86.1"/>
			</g>
			<g>
				<path class="st7" d="M256.3,94.4L256.3,94.4v-4.2c0-2.3,1.9-4.2,4.2-4.2h25.1c2.3,0,4.2,1.9,4.2,4.2v4.2"/>
			</g>
			<g>
				<path class="st14" d="M247.9,115.5c0,4.6,3.7,8.4,8.4,8.4s8.4-3.8,8.4-8.4V98.7c0-2.3-1.9-4.2-4.2-4.2h-8.4
					c-2.3,0-4.2,1.9-4.2,4.2V115.5z"/>
			</g>
			<g>
				<path class="st15" d="M264.3,96.9c-0.7-1.5-2.1-2.5-3.8-2.5h-8.4c-2.3,0-4.2,1.9-4.2,4.2v14.7L264.3,96.9z"/>
			</g>
			<g>
				<path class="st16" d="M247.9,104.9v10.5c0,4.6,3.7,8.4,8.4,8.4s8.4-3.8,8.4-8.4v-10.5H247.9z"/>
			</g>
			<g>
				<path class="st17" d="M256.3,104.9h-8.4v8.4L256.3,104.9z"/>
			</g>
			<g>
				<path class="st7" d="M247.9,115.5c0,4.6,3.7,8.4,8.4,8.4s8.4-3.8,8.4-8.4V98.7c0-2.3-1.9-4.2-4.2-4.2h-8.4
					c-2.3,0-4.2,1.9-4.2,4.2V115.5z"/>
			</g>
			<g>
				<path class="st18" d="M281.3,199.5h-16.7c-2.3,0-4.2-1.9-4.2-4.2v-25.2c0-2.3,1.9-4.2,4.2-4.2h16.7c2.3,0,4.2,1.9,4.2,4.2v25.2
					C285.5,197.6,283.7,199.5,281.3,199.5"/>
			</g>
			<g>
				<path class="st14" d="M285.5,178.5v-8.4c0-2.3-1.9-4.2-4.2-4.2h-16.7c-2.3,0-4.2,1.9-4.2,4.2v8.4H285.5z"/>
			</g>
			<g>
				<path class="st15" d="M281.3,165.9h-16.7c-2.3,0-4.2,1.9-4.2,4.2v8.4h8.4L281.3,165.9z"/>
			</g>
			<g>
				<path class="st7" d="M260.5,178.5h25.1"/>
			</g>
			<g>
				<path class="st7" d="M281.3,199.5h-16.7c-2.3,0-4.2-1.9-4.2-4.2v-25.2c0-2.3,1.9-4.2,4.2-4.2h16.7c2.3,0,4.2,1.9,4.2,4.2v25.2
					C285.5,197.6,283.7,199.5,281.3,199.5z"/>
			</g>
			<g>
				<path class="st7" d="M281.3,136.5c0-4.6-3.7-8.4-8.4-8.4c-4.6,0-8.4,3.8-8.4,8.4v12.6c0,2.3-1.9,4.2-4.2,4.2s-4.2-1.9-4.2-4.2
					v-25.2l0,0"/>
			</g>
			<g>
				<path class="st15" d="M287.6,157.5h-8.4c-1.2,0-2.1-0.9-2.1-2.1v-16.8c0-1.2,0.9-2.1,2.1-2.1h8.4c1.2,0,2.1,0.9,2.1,2.1v16.8
					C289.7,156.5,288.8,157.5,287.6,157.5"/>
			</g>
			<g>
				<path class="st16" d="M287.6,157.5h-8.4c-1.2,0-2.1-0.9-2.1-2.1v-12.6h12.5v12.6C289.7,156.5,288.8,157.5,287.6,157.5"/>
			</g>
			<g>
				<path class="st17" d="M277.2,142.8v12.6l12.5-12.6H277.2z"/>
			</g>
			<g>
				<path class="st7" d="M287.6,157.5h-8.4c-1.2,0-2.1-0.9-2.1-2.1v-16.8c0-1.2,0.9-2.1,2.1-2.1h8.4c1.2,0,2.1,0.9,2.1,2.1v16.8
					C289.7,156.5,288.8,157.5,287.6,157.5L287.6,157.5z"/>
			</g>
			<g>
				<path class="st19" d="M139.3,197.7l5.8,75.4h40.4l5.8-75.4L139.3,197.7z"/>
			</g>
			<g>
				<path class="st7" d="M139.3,197.7L139.3,197.7l5.8,75.4l0,0h40.4l0,0l5.8-75.4l0,0L139.3,197.7z"/>
			</g>
			<g>
				<path class="st6" d="M165.2,290.5c0,3.2-2.6,5.8-5.8,5.8h-12.8c-1.8,0-3.5-0.8-4.5-2.2c-1.1-1.4-1.5-3.2-1-5l4-16h20.2
					L165.2,290.5z"/>
			</g>
			<g>
				<path class="st7" d="M165.2,290.5c0,3.2-2.6,5.8-5.8,5.8h-12.8c-1.8,0-3.5-0.8-4.5-2.2c-1.1-1.4-1.5-3.2-1-5l4-16l0,0h20.2l0,0
					L165.2,290.5z"/>
			</g>
			<g>
				<path class="st10" d="M165.2,276c0,4.8-5.3,8.7-10.1,8.7c-4.8,0-10.1-3.9-10.1-8.7v-2.9h20.2V276z"/>
			</g>
			<g>
				<path class="st7" d="M165.2,276c0,4.8-5.3,8.7-10.1,8.7c-4.8,0-10.1-3.9-10.1-8.7v-2.9l0,0h20.2l0,0V276z"/>
			</g>
			<g>
				<path class="st6" d="M165.2,290.5c0,3.2,2.6,5.8,5.8,5.8h12.8c1.8,0,3.5-0.8,4.5-2.2c1.1-1.4,1.5-3.2,1.1-5l-4-16h-20.2V290.5z"
					/>
			</g>
			<g>
				<path class="st7" d="M165.2,290.5c0,3.2,2.6,5.8,5.8,5.8h12.8c1.8,0,3.5-0.8,4.5-2.2c1.1-1.4,1.5-3.2,1.1-5l-4-16l0,0h-20.2l0,0
					V290.5z"/>
			</g>
			<g>
				<path class="st10" d="M165.2,276c0,4.8,5.3,8.7,10.1,8.7c4.8,0,10.1-3.9,10.1-8.7v-2.9h-20.2V276z"/>
			</g>
			<g>
				<path class="st7" d="M165.2,276c0,4.8,5.3,8.7,10.1,8.7c4.8,0,10.1-3.9,10.1-8.7v-2.9l0,0h-20.2l0,0V276z"/>
			</g>
			<g>
				<path class="st7" d="M165.2,273.1V218"/>
			</g>
			<g>
				<path class="st19" d="M151.7,125.2l1.1-5.9l10.4,17c0.4,0.7,1.2,1.1,2,1.1c0.8,0,1.6-0.4,2-1.1l10.4-17l1.1,5.9L166,186.1h-1.6
					L151.7,125.2z"/>
			</g>
			<g>
				<path class="st7" d="M151.7,125.2L151.7,125.2l1.1-5.9l0,0l10.4,17c0.4,0.7,1.2,1.1,2,1.1c0.8,0,1.6-0.4,2-1.1l10.4-17l0,0
					l1.1,5.9l0,0L166,186.1l0,0h-1.6l0,0L151.7,125.2z"/>
			</g>
			<g>
				<path class="st20" d="M166,185.5l23.5-64.3c12.2,8.3,19,21.9,19,35.9v52.2h-17.3v11.6C176.7,220.9,161.7,202.5,166,185.5"/>
			</g>
			<g>
				<path class="st6" d="M195.3,125.9c-1.5-1.5-3.6-3.2-5.8-4.7l-4.2,11.4c14.2,7.6,23.1,22.4,23.1,38.5v-14
					C208.5,145.4,203.7,134.1,195.3,125.9"/>
			</g>
			<g>
				<path class="st7" d="M166,185.5l23.5-64.3c12.2,8.3,19,21.9,19,35.9v52.2h-17.3v11.6C176.7,220.9,161.7,202.5,166,185.5
					L166,185.5z"/>
			</g>
			<g>
				<path class="st6" d="M178.4,114c-0.4-0.1-0.7,0-1,0.3c-0.3,0.3-0.4,0.6-0.3,1l1.7,10L166,186.1l22.3-37.7l-2.9-8.7l8.6-8.7
					l-2.9-8.7C189.7,118.1,183.2,115.3,178.4,114"/>
			</g>
			<g>
				<path class="st7" d="M178.4,114c-0.4-0.1-0.7,0-1,0.3c-0.3,0.3-0.4,0.6-0.3,1l1.7,10l0,0L166,186.1l0,0l22.3-37.7l0,0l-2.9-8.7
					l0,0l8.6-8.7l0,0l-2.9-8.7C189.7,118.1,183.2,115.3,178.4,114L178.4,114z"/>
			</g>
			<g>
				<path class="st20" d="M164.4,185.5l-23.5-64.3c-12.2,8.3-19,21.9-19,35.9v5.8c0,12.9,7,24.1,17.3,30.1v27.9
					C153.7,220.9,168.7,202.5,164.4,185.5"/>
			</g>
			<g>
				<path class="st6" d="M140.9,121.2c-2.2,1.5-4.2,3.2-5.8,4.7c-8.1,7.9-13.2,19-13.2,31.2v4.3h1.1c2.8-12.5,11-23,22-28.8
					L140.9,121.2z"/>
			</g>
			<g>
				<path class="st7" d="M139.3,193v27.8c14.4,0,29.4-18.4,25.1-35.4l-23.5-64.3c-12.2,8.3-19,21.9-19,35.9v5.8
					C121.9,175.3,128.5,186.8,139.3,193L139.3,193z"/>
			</g>
			<g>
				<path class="st6" d="M152.2,114c0.3-0.1,0.6,0,0.9,0.2c0.2,0.2,0.4,0.6,0.3,0.9l0,0.2l-1.7,10l12.7,60.9l-22.3-37.7l2.9-8.7
					l-8.6-8.7l2.9-8.7C140.7,118,147.4,115.2,152.2,114"/>
			</g>
			<g>
				<path class="st7" d="M152.2,114c0.3-0.1,0.6,0,0.9,0.2c0.2,0.2,0.4,0.6,0.3,0.9l0,0.2l0,0l-1.7,10l0,0l12.7,60.9l0,0l-22.3-37.7
					l0,0l2.9-8.7l0,0l-8.6-8.7l0,0l2.9-8.7C140.7,118,147.4,115.2,152.2,114z"/>
			</g>
			<g>
				<path class="st7" d="M139.3,193c5.3,3.1,11.2,4.7,17.3,4.7h5.8l0,0v-17.4l0,0h-5.8c-9.6,0-17.3-7.8-17.3-17.4v-3.4l0,0"/>
			</g>
			<g>
				<path class="st10" d="M208.4,218c0,4.8-3.9,8.7-8.6,8.7s-8.6-3.9-8.6-8.7v-8.7h17.3V218z"/>
			</g>
			<g>
				<path class="st7" d="M208.4,218c0,4.8-3.9,8.7-8.6,8.7s-8.6-3.9-8.6-8.7v-8.7l0,0h17.3l0,0V218z"/>
			</g>
			<g>
				<path class="st10" d="M177.7,119.4l-0.7-4.1c-3.8-1.1-7.8-1.6-11.8-1.6c-4.1,0-8.1,0.6-11.8,1.6l-0.7,4.1l10.4,17
					c0.4,0.7,1.2,1.1,2,1.2c0.8,0,1.6-0.4,2-1.1L177.7,119.4z"/>
			</g>
			<g>
				<path class="st7" d="M177.7,119.4L177.7,119.4l-0.7-4.1c-3.8-1.1-7.8-1.6-11.8-1.6c-4.1,0-8.1,0.6-11.8,1.6l-0.7,4.1l0,0
					l10.4,17c0.4,0.7,1.2,1.1,2,1.2c0.8,0,1.6-0.4,2-1.1L177.7,119.4z"/>
			</g>
			<g>
				<path class="st7" d="M191.1,209.3v-49.8"/>
			</g>
			<g>
				<path class="st21" d="M181.5,163c0.5-2.6-1.1-5.2-3.7-5.7l-27.3-5.7c-2.6-0.5-5.1,1.1-5.7,3.7c0,0,0,0,0,0l-3.4,16.2
					c3,5.3,8.6,8.9,15.1,8.9h5.8v17.4h-5.8c-6.9,0-13.6-2.1-19.3-5.9l-1.1,5.1c-0.5,2.6,1.1,5.2,3.7,5.7l27.3,5.7
					c2.6,0.5,5.1-1.1,5.7-3.7L181.5,163z"/>
			</g>
			<g>
				<path class="st7" d="M181.5,163c0.5-2.6-1.1-5.2-3.7-5.7l-27.3-5.7c-2.6-0.5-5.1,1.1-5.7,3.7c0,0,0,0,0,0l-3.4,16.2
					c3,5.3,8.6,8.9,15.1,8.9h5.8v17.4h-5.8c-6.9,0-13.6-2.1-19.3-5.9l-1.1,5.1c-0.5,2.6,1.1,5.2,3.7,5.7l27.3,5.7
					c2.6,0.5,5.1-1.1,5.7-3.7L181.5,163z"/>
			</g>
			<g>
				<path class="st10" d="M171,180.3c4.8,0,8.6,3.9,8.6,8.7c0,4.8-3.9,8.7-8.6,8.7h-8.6v-17.4L171,180.3z"/>
			</g>
			<g>
				<path class="st7" d="M171,180.3c4.8,0,8.6,3.9,8.6,8.7c0,4.8-3.9,8.7-8.6,8.7h-8.6l0,0v-17.4l0,0L171,180.3z"/>
			</g>
		</g>
	</g>
</g>
</svg>
