<svg xmlns="http://www.w3.org/2000/svg" width="410.506" height="711.933" viewBox="0 0 410.506 711.933"><defs><style>.a{fill:#5a82fc;}.b{fill:none;}.c{fill:#202125;}.d{fill:#fff;}.e{fill:#3e60c1;}.f{fill:#273557;}</style></defs><g transform="translate(-11421.102 1115)"><path class="a" d="M325.4,236.922a232.771,232.771,0,0,1-3.864,42.358.531.531,0,0,1-.018.118c-.78,4.236-1.669,8.435-2.694,12.589a.762.762,0,0,0-.036.136c-.009,0-.009,0,0,.009v.009a98.489,98.489,0,0,1-65.142,66.6q-4.367,1.361-8.9,2.313a98.742,98.742,0,0,1-20.326,2.1c-1.46,0-2.921-.036-4.363-.1q.5-5.605.5-11.338A127.694,127.694,0,0,0,190.23,268.94a53.955,53.955,0,0,0,91.764-34.92c.163.1.317.2.481.3q1.4-15.36,1.415-31.1c0-46.013-6.469-74.552-23.158-114.516C283.651,86.478,325.4,173.122,325.4,236.922Z" transform="translate(11434.714 -1123.697)"/><ellipse class="a" cx="17" cy="16.5" rx="17" ry="16.5" transform="translate(11687 -1051.169)"/><path class="b" d="M189.728,286.854a51.835,51.835,0,0,1-4.408-4.934Q187.592,284.328,189.728,286.854Z" transform="translate(11435.17 -1141.666)"/><path class="b" d="M180.84,214.42a53.445,53.445,0,0,0-6.658,16.5c-.091.4-.172.8-.254,1.206-.1.517-.191,1.043-.281,1.578v.009a54.171,54.171,0,0,0,3.3,29.333,54.1,54.1,0,0,1-3.71-29.977c.036-.254.082-.508.127-.762.091-.535.19-1.061.3-1.587a53.4,53.4,0,0,1,6.313-16.372,51.851,51.851,0,0,1,4.082-5.977" transform="translate(11436.358 -1134.827)"/><path class="b" d="M224.621,228.1c-.154.1-.3.19-.454.281-1.188.708-2.4,1.379-3.646,2a52.664,52.664,0,0,1-8.771-2.431c1.633-.064,3.265-.091,4.916-.091q3.456,0,6.875.181C223.9,228.06,224.267,228.078,224.621,228.1Z" transform="translate(11432.713 -1136.639)"/><path class="c" d="M379.268,758.662H-31.238c7.229-25.369,56.315-189.134,78.964-201.624-1.533.581-3.057,1.152-4.608,1.7a98.116,98.116,0,0,0,27.22-41.043.8.8,0,0,0,.045.136c1.46.045,2.93.073,4.408.073a127.5,127.5,0,0,0,69.061-20.19c.916.417,1.841.825,2.766,1.224a127.564,127.564,0,0,0,46.539,10.249q-.395,4.313-.39,8.716C192.768,572.113,325.055,758.662,379.268,758.662Z" transform="translate(11452.34 -1161.729)"/><path class="b" d="M213.53,218.9q-3.415-.177-6.875-.181c-1.651,0-3.283.027-4.916.091a52.664,52.664,0,0,0,8.771,2.431c1.243-.617,2.458-1.288,3.646-2,.154-.091.3-.181.454-.281C214.255,218.937,213.892,218.919,213.53,218.9Zm45.3-88.7c.172.163.336.327.5.5.054-.381.118-.762.172-1.152C259.28,129.777,259.053,129.994,258.826,130.2Zm-81.061,137.55a51.837,51.837,0,0,0,4.408,4.934Q180.038,270.157,177.766,267.753Zm0,0c-.39-.481-.762-.98-1.134-1.478a53.954,53.954,0,0,1-6-10.458,54.13,54.13,0,0,0,5.841,10.585l.036.036v.009C176.949,266.882,177.357,267.309,177.766,267.753Zm-73.2-39.274c-.172.136-.336.263-.5.408.2.027.408.054.608.091C104.641,228.815,104.605,228.651,104.569,228.479ZM213.53,218.9q-3.415-.177-6.875-.181c-1.651,0-3.283.027-4.916.091a52.664,52.664,0,0,0,8.771,2.431c1.243-.617,2.458-1.288,3.646-2,.154-.091.3-.181.454-.281C214.255,218.937,213.892,218.919,213.53,218.9Zm-31.238-82.04c.562.381,1.125.744,1.705,1.1a13.134,13.134,0,0,0,.227-1.8C183.58,136.38,182.936,136.616,182.292,136.861Zm76.535-6.658c.172.163.336.327.5.5.054-.381.118-.762.172-1.152C259.28,129.777,259.053,129.994,258.826,130.2Zm-45.3,88.7q-3.415-.177-6.875-.181c-1.651,0-3.283.027-4.916.091a52.664,52.664,0,0,0,8.771,2.431c1.243-.617,2.458-1.288,3.646-2,.154-.091.3-.181.454-.281C214.255,218.937,213.892,218.919,213.53,218.9Zm45.3-88.7c.172.163.336.327.5.5.054-.381.118-.762.172-1.152C259.28,129.777,259.053,129.994,258.826,130.2Zm-84.353,76.888a53.445,53.445,0,0,0-6.658,16.5c-.091.4-.172.8-.254,1.206-.1.517-.191,1.043-.281,1.578v.009a54.172,54.172,0,0,0,3.3,29.333,54.1,54.1,0,0,1-3.71-29.977c-.1-.163-.2-.327-.317-.49a.186.186,0,0,0-.063-.091c.009-.009.009-.009-.009-.018.009-.009,0-.027-.027-.036-.154-.272-.336-.544-.517-.807a.969.969,0,0,0-.136-.2c-.408-.626-.825-1.243-1.261-1.85.916.408,1.823.789,2.757,1.143a53.4,53.4,0,0,1,6.313-16.372,51.845,51.845,0,0,1,4.082-5.977" transform="translate(11442.727 -1127.499)"/><path class="b" d="M185.32,281.92a51.846,51.846,0,0,0,4.408,4.934Q187.592,284.324,185.32,281.92Z" transform="translate(11435.17 -1141.666)"/><path class="b" d="M184.133,276.894c-.39-.481-.762-.98-1.134-1.479a53.953,53.953,0,0,1-6-10.458,54.133,54.133,0,0,0,5.841,10.585l.036.036v.009C183.316,276.023,183.725,276.449,184.133,276.894Zm-7.184-12.036a54.172,54.172,0,0,1-3.3-29.333v-.009c.091-.535.181-1.061.281-1.578-.19.054-.372.118-.562.181-.172.045-.345.109-.517.163.018.009.018.009.009.018a.186.186,0,0,1,.064.091c.118.163.218.327.317.49a54.1,54.1,0,0,0,3.71,29.977Zm7.184,12.036a51.844,51.844,0,0,0,4.408,4.934Q186.4,279.3,184.133,276.894ZM219.9,228.041q-3.415-.177-6.875-.181c-1.651,0-3.283.027-4.916.091a52.664,52.664,0,0,0,8.771,2.431c1.243-.617,2.458-1.288,3.646-2,.154-.091.3-.181.454-.281C220.622,228.078,220.259,228.06,219.9,228.041Z" transform="translate(11436.358 -1136.639)"/><path class="d" d="M207.96,365.564q0,5.728-.5,11.338a126.97,126.97,0,0,1-5.515,27.555,125.112,125.112,0,0,1-5.134,13.46,98.426,98.426,0,0,1-41.914-59.1c-.481-1.932-.889-3.891-1.243-5.868a98.709,98.709,0,0,1-1.533-17.36c0-1.742.045-3.465.145-5.179l-.181.009c.027-.553.036-1.107.036-1.66a36.757,36.757,0,0,0-20.272-32.88.009.009,0,0,1-.009-.009,36.634,36.634,0,0,0-16.526-3.909c-.263,0-.517,0-.78.009a36.8,36.8,0,0,0-34.485,26.258l-.172-.054A127.979,127.979,0,0,0,73.92,356.9q0,1.143.027,2.286a127.892,127.892,0,0,0,73.877,113.841c.345.163.7.327,1.052.49a127.5,127.5,0,0,1-69.061,20.19c-1.478,0-2.948-.027-4.408-.073a.8.8,0,0,1-.045-.136q-1.973-5.361-3.764-10.794a335.463,335.463,0,0,1-16.381-87.12v-.009q-.327-5.959-.444-11.973c-.054-2.2-.073-4.4-.073-6.6A335.879,335.879,0,0,1,84.813,237.51a129.946,129.946,0,0,1,14.667,1.415c.2.027.408.054.608.091a127.3,127.3,0,0,1,13.614,2.93q3.224.884,6.376,1.932A123.215,123.215,0,0,1,133,248.948a128.075,128.075,0,0,1,38.875,27.492l.036.036v.009c.444.435.853.862,1.261,1.306a51.848,51.848,0,0,0,4.408,4.934c0,.009.009.018.018.027l.027.027a127.694,127.694,0,0,1,30.331,82.784Z" transform="translate(11447.314 -1137.536)"/><path class="b" d="M189.728,286.854a51.835,51.835,0,0,1-4.408-4.934Q187.592,284.328,189.728,286.854Z" transform="translate(11435.17 -1141.666)"/><path class="b" d="M183.327,279.39v-.009l-.036-.036a54.128,54.128,0,0,1-5.841-10.585,53.954,53.954,0,0,0,6,10.458c.372.5.744,1,1.134,1.478C184.18,280.252,183.772,279.826,183.327,279.39Z" transform="translate(11435.902 -1140.442)"/><path class="b" d="M180.672,214.42a53.444,53.444,0,0,0-6.658,16.5c-.091.4-.172.8-.254,1.206-.1.517-.19,1.043-.281,1.578v.009a54.171,54.171,0,0,0,3.3,29.333,54.1,54.1,0,0,1-3.71-29.977c-.1-.163-.2-.327-.317-.49a.186.186,0,0,0-.063-.091c.009-.009.009-.009-.009-.018.009-.009,0-.027-.027-.036-.154-.272-.336-.544-.517-.807a.969.969,0,0,0-.136-.2c-.408-.626-.825-1.243-1.261-1.85.916.408,1.823.789,2.757,1.143a53.4,53.4,0,0,1,6.313-16.372,51.846,51.846,0,0,1,4.082-5.977" transform="translate(11436.526 -1134.827)"/><path class="a" d="M262.373,138.661a67.77,67.77,0,0,1-8.245,17.551c.109.1.227.209.336.327a24.113,24.113,0,0,0-5.551,15.419c0,.535.018,1.07.054,1.6a24.1,24.1,0,0,0,6.939,15.4v.009c-.118.127-.218.245-.336.372a24.059,24.059,0,0,1-16.535,8.326,54.177,54.177,0,0,1-19.311,20.326c-.013.037-1.367.629-2.054.917a10.739,10.739,0,0,1-4.751.823c-1.651,0-5.7-1.691-6.066-1.894a53.685,53.685,0,0,1-17.152-10.34,54.644,54.644,0,0,1-6.367-6.748c-.181-.227-.354-.454-.526-.68-.191-.245-.372-.49-.553-.735s-.354-.481-.526-.726c-.363-.49-.7-.989-1.034-1.488-.227-.336-.454-.671-.662-1.016-.19-.3-.381-.6-.562-.9-.054-.1-.118-.191-.172-.29-.181-.29-.354-.59-.517-.889-.2-.345-.4-.7-.59-1.061s-.39-.717-.571-1.079-.372-.726-.544-1.088c-.2-.4-.39-.807-.571-1.215-.154-.336-.3-.671-.444-1.016-.136-.308-.263-.617-.39-.925-.163-.4-.317-.789-.472-1.2-.082-.2-.163-.417-.236-.626-.109-.29-.209-.581-.308-.88-.127-.354-.245-.708-.363-1.07s-.227-.717-.336-1.079c-.073-.245-.145-.481-.209-.726a3.4,3.4,0,0,1-.109-.408c-.082-.263-.154-.517-.218-.78a2.569,2.569,0,0,1-.082-.336c-.1-.363-.191-.735-.272-1.1-.027-.091-.045-.181-.063-.263-.036-.154-.073-.308-.1-.463a1.284,1.284,0,0,1-.036-.181c-.073-.3-.136-.608-.19-.907-.009-.054-.018-.1-.027-.154-.045-.209-.082-.426-.118-.635a1.023,1.023,0,0,1-.027-.163c-.054-.263-.1-.535-.136-.807a1.227,1.227,0,0,1-.036-.263c-.045-.236-.073-.463-.109-.707q-.1-.612-.163-1.224a3.5,3.5,0,0,1-.054-.444c-.063-.49-.109-.989-.145-1.488a.442.442,0,0,1-.009-.109c-.018-.19-.036-.381-.045-.571-.091-1.261-.136-2.54-.136-3.828a53.611,53.611,0,0,1,3.048-17.9c-.163.009-.317.009-.481.009A15.132,15.132,0,0,1,159.353,131.4a.009.009,0,0,1,.009-.009,14.314,14.314,0,0,1,1.125-3.546.009.009,0,0,1,.009-.009,15.107,15.107,0,0,1,10.322-8.381c.29-.073.58-.127.88-.181a14.613,14.613,0,0,1,2.54-.218,14.787,14.787,0,0,1,4.082.562h.009A15.13,15.13,0,0,1,189.376,134.2c0,.336-.009.662-.036.989a7.6,7.6,0,0,1-.227,1.8,61.488,61.488,0,0,0,48.653,7.075h.009a61.306,61.306,0,0,0,26.168-14.83c.172.163.336.327.5.5A68,68,0,0,1,262.373,138.661Z" transform="translate(11437.609 -1126.523)"/><path class="b" d="M192.242,136.84a13.138,13.138,0,0,1-.227,1.8c-.581-.354-1.143-.717-1.705-1.1C190.954,137.293,191.6,137.058,192.242,136.84Z" transform="translate(11434.707 -1128.177)"/><path class="b" d="M275.361,129.55c-.054.39-.118.771-.172,1.152-.163-.172-.327-.336-.5-.5C274.917,129.994,275.143,129.777,275.361,129.55Z" transform="translate(11426.861 -1127.499)"/><path class="b" d="M189.728,286.854a51.835,51.835,0,0,1-4.408-4.934Q187.592,284.328,189.728,286.854Z" transform="translate(11435.17 -1141.666)"/><path class="b" d="M183.327,279.39v-.009l-.036-.036a54.128,54.128,0,0,1-5.841-10.585,53.954,53.954,0,0,0,6,10.458c.372.5.744,1,1.134,1.478C184.18,280.252,183.772,279.826,183.327,279.39Z" transform="translate(11435.902 -1140.442)"/><path class="b" d="M180.672,214.42a53.444,53.444,0,0,0-6.658,16.5c-.091.4-.172.8-.254,1.206-.1.517-.19,1.043-.281,1.578v.009a54.171,54.171,0,0,0,3.3,29.333,54.1,54.1,0,0,1-3.71-29.977c-.1-.163-.2-.327-.317-.49a.186.186,0,0,0-.063-.091c.009-.009.009-.009-.009-.018.009-.009,0-.027-.027-.036-.154-.272-.336-.544-.517-.807a.969.969,0,0,0-.136-.2c-.408-.626-.825-1.243-1.261-1.85.916.408,1.823.789,2.757,1.143a53.4,53.4,0,0,1,6.313-16.372,51.846,51.846,0,0,1,4.082-5.977" transform="translate(11436.526 -1134.827)"/><path class="a" d="M323.634,408.551a128.18,128.18,0,0,1-119.6,82.077c-1.3,0-2.594-.018-3.882-.054a127.561,127.561,0,0,1-46.539-10.249c-.925-.4-1.85-.807-2.766-1.225-.354-.163-.707-.326-1.052-.49a127.892,127.892,0,0,1-73.877-113.84q-.027-1.143-.027-2.286a127.98,127.98,0,0,1,5.959-38.73l.172.054a36.8,36.8,0,0,1,34.485-26.258c.263-.009.517-.009.78-.009a36.634,36.634,0,0,1,16.526,3.909.009.009,0,0,0,.009.009,36.757,36.757,0,0,1,20.272,32.88c0,.553-.009,1.107-.036,1.66l.181-.009c-.1,1.714-.145,3.438-.145,5.179a98.71,98.71,0,0,0,1.533,17.36c.354,1.977.762,3.936,1.243,5.868a98.425,98.425,0,0,0,41.914,59.1c1.832,1.2,3.7,2.322,5.614,3.392a96.86,96.86,0,0,0,19.256,8.209c1.751.535,3.528,1.025,5.324,1.451a98.263,98.263,0,0,0,94.657-28Z" transform="translate(11445.346 -1143.118)"/><path class="e" d="M208.9,13.824a61.449,61.449,0,0,0-37.787,25.705A23.143,23.143,0,1,1,208.9,13.824Z" transform="translate(11437.08 -1115.5)"/><path class="b" d="M192.242,136.84a13.138,13.138,0,0,1-.227,1.8c-.581-.354-1.143-.717-1.705-1.1C190.954,137.293,191.6,137.058,192.242,136.84Z" transform="translate(11434.707 -1128.177)"/><path class="b" d="M275.361,129.55c-.054.39-.118.771-.172,1.152-.163-.172-.327-.336-.5-.5C274.917,129.994,275.143,129.777,275.361,129.55Z" transform="translate(11426.861 -1127.499)"/><path class="b" d="M192.242,136.84a13.138,13.138,0,0,1-.227,1.8c-.581-.354-1.143-.717-1.705-1.1C190.954,137.293,191.6,137.058,192.242,136.84Z" transform="translate(11434.707 -1128.177)"/><path class="c" d="M211.733,25.013a23.078,23.078,0,0,1-6.875,16.453q-3.17-.313-6.413-.308a68,68,0,0,0-21.923,3.61A22.544,22.544,0,0,1,171.76,40.9,61.449,61.449,0,0,1,209.547,15.19,22.981,22.981,0,0,1,211.733,25.013Z" transform="translate(11436.431 -1116.866)"/><path class="c" d="M262.242,111.856a68.947,68.947,0,0,1-.553,8.707c-.045.345-.091.68-.136,1.016-.218.227-.444.444-.671.653a61.306,61.306,0,0,1-26.168,14.83H234.7a61.488,61.488,0,0,1-48.653-7.075,13.135,13.135,0,0,0,.227-1.8c.027-.327.036-.653.036-.989a15.13,15.13,0,0,0-11.048-14.576h-.009a14.787,14.787,0,0,0-4.082-.562,14.616,14.616,0,0,0-2.54.218c-.3.054-.59.109-.88.181a15.107,15.107,0,0,0-10.322,8.381.009.009,0,0,0-.009.009A14.313,14.313,0,0,0,156.3,124.4a.009.009,0,0,0-.009.009,14.959,14.959,0,0,0-.263,2.794A15.127,15.127,0,0,0,163,139.955a97.968,97.968,0,0,0-19.347,17.433,68.24,68.24,0,0,1-6.63-8.644c-.317-.5-.635-1-.934-1.506a67.666,67.666,0,0,1-9.923-35.383A67.97,67.97,0,0,1,194.206,43.82q3.238,0,6.413.308a68.031,68.031,0,0,1,61.623,67.727Z" transform="translate(11440.669 -1119.528)"/><path class="b" d="M192.242,136.84a13.138,13.138,0,0,1-.227,1.8c-.581-.354-1.143-.717-1.705-1.1C190.954,137.293,191.6,137.058,192.242,136.84Z" transform="translate(11434.707 -1128.177)"/><path class="b" d="M192.242,136.84a13.138,13.138,0,0,1-.227,1.8c-.581-.354-1.143-.717-1.705-1.1C190.954,137.293,191.6,137.058,192.242,136.84Z" transform="translate(11434.707 -1128.177)"/><path class="d" d="M177.922,272.588A128.075,128.075,0,0,0,139.047,245.1a123.229,123.229,0,0,0-12.925-5.07q-3.156-1.048-6.376-1.932c-.009-.381-.018-.771-.027-1.161-.009-.608-.018-1.225-.018-1.832,0-3.365.172-6.694.5-9.968.027-.245.054-.5.082-.744.064-.653.145-1.3.227-1.941.018-.118.027-.236.054-.354.063-.526.136-1.061.218-1.587l.136-.925c.009-.054.018-.1.027-.154.118-.7.236-1.4.363-2.086.127-.707.263-1.424.417-2.132.045-.245.1-.49.154-.735.136-.68.29-1.351.454-2.032.181-.762.372-1.524.562-2.277.181-.671.363-1.351.562-2.023.1-.354.2-.707.308-1.061.136-.463.272-.925.426-1.388q.082-.3.19-.6c.218-.7.454-1.4.689-2.086a.625.625,0,0,1,.027-.073c.272-.771.544-1.542.834-2.3.227-.6.454-1.206.7-1.8.363-.925.744-1.841,1.134-2.748a94.68,94.68,0,0,1,11.546,6.494c.653.426,1.3.862,1.941,1.306s1.279.889,1.914,1.351c.508.363,1.007.735,1.506,1.116.581.444,1.161.889,1.732,1.342.481.381.961.771,1.442,1.161.19.154.39.308.581.481.209.172.426.345.635.535.345.281.689.58,1.025.88q.884.762,1.742,1.551c.3.263.59.535.871.807s.58.544.862.816c.463.444.916.889,1.37,1.342.571.562,1.134,1.143,1.687,1.732.336.345.662.689.989,1.043,1.433,1.542,2.821,3.147,4.154,4.789.771.952,1.524,1.914,2.258,2.893.671.889,1.333,1.787,1.968,2.7h.009c.435.608.853,1.225,1.261,1.85a.97.97,0,0,1,.136.2c.181.263.363.535.517.807.027.009.036.027.027.036.018.009.018.009.009.018a.186.186,0,0,1,.064.091c.118.163.218.327.317.49a54.1,54.1,0,0,0,3.71,29.977c.009.009.009.027.018.036s.018.045.027.064A54.129,54.129,0,0,0,177.922,272.588Z" transform="translate(11441.271 -1133.685)"/><path class="b" d="M192.242,136.84a13.138,13.138,0,0,1-.227,1.8c-.581-.354-1.143-.717-1.705-1.1C190.954,137.293,191.6,137.058,192.242,136.84Z" transform="translate(11434.707 -1128.177)"/><path class="b" d="M192.242,136.84a13.138,13.138,0,0,1-.227,1.8c-.581-.354-1.143-.717-1.705-1.1C190.954,137.293,191.6,137.058,192.242,136.84Z" transform="translate(11434.707 -1128.177)"/><path class="a" d="M179.973,202.925a51.845,51.845,0,0,0-4.082,5.977,53.4,53.4,0,0,0-6.313,16.372c-.934-.354-1.841-.735-2.757-1.143h-.009c-.635-.916-1.3-1.814-1.968-2.7-.726-.98-1.478-1.941-2.258-2.893-1.333-1.642-2.721-3.247-4.154-4.789-.327-.354-.653-.7-.989-1.043-.553-.59-1.116-1.17-1.687-1.732-.454-.454-.907-.907-1.37-1.342-.281-.272-.571-.544-.862-.816s-.571-.544-.871-.807q-.857-.789-1.741-1.551c-.336-.3-.68-.6-1.025-.88-.209-.19-.426-.363-.635-.535-.191-.172-.39-.327-.581-.481-.472-.4-.961-.789-1.442-1.161-.571-.463-1.152-.907-1.732-1.342-.5-.381-1-.753-1.506-1.116-.635-.463-1.27-.907-1.914-1.351s-1.288-.88-1.941-1.306a94.681,94.681,0,0,0-11.546-6.494,96.453,96.453,0,0,1,6.395-12.263v-.009a96.347,96.347,0,0,1,8.9-12.272,97.97,97.97,0,0,1,19.347-17.433A15.067,15.067,0,0,0,171.4,152.2c.163,0,.317,0,.481-.009a53.612,53.612,0,0,0-3.048,17.9c0,1.288.045,2.567.136,3.828.009.19.027.381.045.571a.442.442,0,0,0,.009.109c.036.5.082,1,.145,1.488a3.5,3.5,0,0,0,.054.444q.068.612.163,1.225a5.762,5.762,0,0,0,.109.707,1.226,1.226,0,0,0,.036.263c.036.272.082.544.136.807a1.023,1.023,0,0,0,.027.163c.036.209.073.426.118.635.009.054.018.1.027.154.054.3.118.608.19.907a1.285,1.285,0,0,0,.036.181c.027.154.063.308.1.463.018.082.036.172.064.263.082.363.172.735.272,1.1a2.569,2.569,0,0,0,.082.336c.063.263.136.517.218.78a3.4,3.4,0,0,0,.109.408c.063.245.136.481.209.726.109.363.218.717.336,1.079s.236.717.363,1.07c.1.3.2.59.308.88.073.209.154.426.236.626.154.408.308.8.472,1.2.127.308.254.617.39.925.145.345.29.68.444,1.016.181.408.372.816.571,1.215q.258.544.544,1.088c.181.363.372.717.571,1.079s.39.717.59,1.061c.163.3.336.6.517.889.054.1.118.19.172.29.181.3.372.6.562.9.209.345.435.68.662,1.016.336.5.671,1,1.034,1.488.163.245.345.49.526.726S179.782,202.68,179.973,202.925Z" transform="translate(11440.445 -1129.382)"/><path class="b" d="M184.7,209.05a54.064,54.064,0,0,0-3.746,5.37,53.444,53.444,0,0,0-6.658,16.5c-.172-.064-.345-.127-.517-.2a53.4,53.4,0,0,1,6.313-16.372,51.842,51.842,0,0,1,4.082-5.977C184.347,208.6,184.519,208.824,184.7,209.05Z" transform="translate(11436.244 -1134.827)"/><path class="b" d="M174.014,233.092c-.091.4-.172.8-.254,1.206-.1.517-.191,1.043-.281,1.578-.136-.218-.263-.426-.408-.635-.1-.163-.2-.327-.317-.49a.185.185,0,0,0-.064-.091c.009-.009.009-.009-.009-.018.009-.009,0-.027-.027-.036-.154-.272-.336-.544-.517-.807a.973.973,0,0,0-.136-.2c-.408-.626-.825-1.243-1.261-1.85.916.408,1.823.789,2.757,1.143C173.67,232.965,173.842,233.029,174.014,233.092Z" transform="translate(11436.526 -1137.001)"/><path class="d" d="M126.113,195.346c-.39.907-.771,1.823-1.134,2.748-.245.59-.472,1.2-.7,1.8-.29.762-.562,1.533-.834,2.3a.625.625,0,0,0-.027.073c-.236.689-.472,1.388-.689,2.086q-.109.3-.19.6c-.154.463-.29.925-.426,1.388-.109.354-.209.707-.308,1.061-.2.671-.381,1.352-.562,2.023-.2.753-.39,1.515-.562,2.277-.163.68-.317,1.351-.454,2.032-.054.245-.109.49-.154.735-.154.707-.29,1.424-.417,2.132-.127.689-.254,1.388-.363,2.086-.009.054-.018.1-.027.154l-.136.925c-.082.526-.154,1.061-.218,1.587-.027.118-.036.236-.054.354-.082.644-.163,1.288-.227,1.941-.027.245-.054.5-.082.744-.327,3.274-.5,6.6-.5,9.968,0,.608.009,1.224.018,1.832.009.39.018.78.027,1.161a127.318,127.318,0,0,0-13.614-2.93c-.036-.163-.073-.327-.109-.5a98.113,98.113,0,0,1-2.422-21.741c0-1.551.036-3.1.109-4.635v-.027a97.191,97.191,0,0,1,2.875-19.428q3.878.844,7.637,2A95.8,95.8,0,0,1,126.113,195.346Z" transform="translate(11442.923 -1132.942)"/><path class="b" d="M104.678,239.119c-.2-.036-.408-.063-.608-.091.163-.145.327-.272.5-.408C104.605,238.792,104.641,238.956,104.678,239.119Z" transform="translate(11442.727 -1137.64)"/><path class="b" d="M334.7,298.95a97.879,97.879,0,0,1-2.694,12.589C333.035,307.385,333.924,303.186,334.7,298.95Z" transform="translate(11421.531 -1143.249)"/><path class="b" d="M184.057,280.29a1.982,1.982,0,0,0-.127.163v.009c.444.435.853.862,1.261,1.306C184.8,281.288,184.429,280.789,184.057,280.29Zm1.134,1.478A51.854,51.854,0,0,0,189.6,286.7Q187.463,284.172,185.191,281.768Z" transform="translate(11435.3 -1141.514)"/><line class="b" x1="0.635" y1="0.19" transform="translate(11527.367 -819.31)"/><line class="b" x1="0.399" y1="0.118" transform="translate(11526.795 -819.483)"/><line class="b" x1="0.499" y2="0.045" transform="translate(11599.584 -807.174)"/><line class="b" x1="0.372" y2="0.036" transform="translate(11599.03 -807.12)"/><line class="b" x1="38.104" y1="0.435" transform="translate(11732.943 -757.533)"/><path class="b" d="M11220.188-686.786c.606-.872,10.382-1.093,10.382-1.093l-2.427,3.488S11219.581-685.914,11220.188-686.786Z" transform="translate(443.415 -236.536)"/><path class="f" d="M8.14,9.249A8.415,8.415,0,0,1,2.593,7.2,7.526,7.526,0,0,1,0,2.179,12.717,12.717,0,0,0,6.779,4.11,12.541,12.541,0,0,0,16.146,0a7.347,7.347,0,0,1,.163,1.54A7.958,7.958,0,0,1,8.14,9.249Z" transform="translate(11665.262 -975.498)"/><ellipse class="a" cx="16.5" cy="16" rx="16.5" ry="16" transform="translate(11740 -741.169)"/><path class="d" d="M349.27,404.279a21.265,21.265,0,1,1-40.208-9.669l38.1.435A21.132,21.132,0,0,1,349.27,404.279Z" transform="translate(11423.882 -1152.143)"/><path class="d" d="M336.432,373.72a4.482,4.482,0,0,1-.508,2.113c-.907,1.732-5.515,5.56-5.515,5.56l1.079-5.7a10.011,10.011,0,0,0,.172-1.787,9.641,9.641,0,0,0-2.24-6.186c-2.177-2.6-3.81-6.422-2.141-9.388,1.043-1.859,6-6.077,6-6.077l-1.56,6.213a10.619,10.619,0,0,0,2.141,9.379A9.924,9.924,0,0,1,336.432,373.72Z" transform="translate(11422.036 -1148.206)"/></g></svg>