<?xml version="1.0" encoding="utf-8"?>
<!-- Generator: Adobe Illustrator 22.0.1, SVG Export Plug-In . SVG Version: 6.00 Build 0)  -->
<svg version="1.0" xmlns:x="&ns_extend;" xmlns:i="&ns_ai;" xmlns:graph="&ns_graphs;"
	 xmlns="http://www.w3.org/2000/svg" xmlns:xlink="http://www.w3.org/1999/xlink" xmlns:a="http://ns.adobe.com/AdobeSVGViewerExtensions/3.0/"
	 x="0px" y="0px" viewBox="0 0 750 500" enable-background="new 0 0 750 500" xml:space="preserve">
<metadata><?xpacket begin="﻿" id="W5M0MpCehiHzreSzNTczkc9d"?>
<x:xmpmeta xmlns:x="adobe:ns:meta/" x:xmptk="Adobe XMP Core 5.6-c143 79.161210, 2017/08/11-10:28:36        ">
   <rdf:RDF xmlns:rdf="http://www.w3.org/1999/02/22-rdf-syntax-ns#">
      <rdf:Description rdf:about=""
            xmlns:dc="http://purl.org/dc/elements/1.1/"
            xmlns:xmp="http://ns.adobe.com/xap/1.0/"
            xmlns:xmpGImg="http://ns.adobe.com/xap/1.0/g/img/"
            xmlns:xmpMM="http://ns.adobe.com/xap/1.0/mm/"
            xmlns:stRef="http://ns.adobe.com/xap/1.0/sType/ResourceRef#"
            xmlns:stEvt="http://ns.adobe.com/xap/1.0/sType/ResourceEvent#"
            xmlns:illustrator="http://ns.adobe.com/illustrator/1.0/"
            xmlns:xmpTPg="http://ns.adobe.com/xap/1.0/t/pg/"
            xmlns:stDim="http://ns.adobe.com/xap/1.0/sType/Dimensions#"
            xmlns:xmpG="http://ns.adobe.com/xap/1.0/g/"
            xmlns:pdf="http://ns.adobe.com/pdf/1.3/">
         <dc:format>image/svg+xml</dc:format>
         <dc:title>
            <rdf:Alt>
               <rdf:li xml:lang="x-default">07. Meet aou team concept (illustration for landing page)</rdf:li>
            </rdf:Alt>
         </dc:title>
         <xmp:MetadataDate>2020-03-09T07:56:32+01:00</xmp:MetadataDate>
         <xmp:ModifyDate>2020-03-09T07:56:32+01:00</xmp:ModifyDate>
         <xmp:CreateDate>2020-03-09T07:56:29+01:00</xmp:CreateDate>
         <xmp:CreatorTool>Adobe Illustrator CC 22.0 (Windows)</xmp:CreatorTool>
         <xmp:Thumbnails>
            <rdf:Alt>
               <rdf:li rdf:parseType="Resource">
                  <xmpGImg:width>256</xmpGImg:width>
                  <xmpGImg:height>172</xmpGImg:height>
                  <xmpGImg:format>JPEG</xmpGImg:format>
                  <xmpGImg:image>/9j/4AAQSkZJRgABAgEASABIAAD/7QAsUGhvdG9zaG9wIDMuMAA4QklNA+0AAAAAABAASAAAAAEA&#xA;AQBIAAAAAQAB/+4ADkFkb2JlAGTAAAAAAf/bAIQABgQEBAUEBgUFBgkGBQYJCwgGBggLDAoKCwoK&#xA;DBAMDAwMDAwQDA4PEA8ODBMTFBQTExwbGxscHx8fHx8fHx8fHwEHBwcNDA0YEBAYGhURFRofHx8f&#xA;Hx8fHx8fHx8fHx8fHx8fHx8fHx8fHx8fHx8fHx8fHx8fHx8fHx8fHx8fHx8f/8AAEQgArAEAAwER&#xA;AAIRAQMRAf/EAaIAAAAHAQEBAQEAAAAAAAAAAAQFAwIGAQAHCAkKCwEAAgIDAQEBAQEAAAAAAAAA&#xA;AQACAwQFBgcICQoLEAACAQMDAgQCBgcDBAIGAnMBAgMRBAAFIRIxQVEGE2EicYEUMpGhBxWxQiPB&#xA;UtHhMxZi8CRygvElQzRTkqKyY3PCNUQnk6OzNhdUZHTD0uIIJoMJChgZhJRFRqS0VtNVKBry4/PE&#xA;1OT0ZXWFlaW1xdXl9WZ2hpamtsbW5vY3R1dnd4eXp7fH1+f3OEhYaHiImKi4yNjo+Ck5SVlpeYmZ&#xA;qbnJ2en5KjpKWmp6ipqqusra6voRAAICAQIDBQUEBQYECAMDbQEAAhEDBCESMUEFURNhIgZxgZEy&#xA;obHwFMHR4SNCFVJicvEzJDRDghaSUyWiY7LCB3PSNeJEgxdUkwgJChgZJjZFGidkdFU38qOzwygp&#xA;0+PzhJSktMTU5PRldYWVpbXF1eX1RlZmdoaWprbG1ub2R1dnd4eXp7fH1+f3OEhYaHiImKi4yNjo&#xA;+DlJWWl5iZmpucnZ6fkqOkpaanqKmqq6ytrq+v/aAAwDAQACEQMRAD8A9U4q7FXYq7FXYq7FXYq7&#xA;FXYq7FXYq7FXYq7FXYq7FXYq7FXYq7FXYq7FXYq7FXYq7FXYq7FXYq7FXYq7FXYq7FXYq7FXEgCp&#xA;NAOpOKtK6OKqwYeINcJFKtM8KkgyKCOoJGPCUW19Yt/9+p/wQw8J7lsO+sW/+/U/4IY8J7lsKgII&#xA;qDUHocil2KuxV2KuxVbJIkaM7niiirE+GEAk0FJagmjniWWI8kcVU4ZRMTRQDa/IpdirsVdirsVd&#xA;irsVdirsVdirsVdirsVdirsVdirsVdirsVdiqD1WGaW2pEKkMCyjuMtwyAO7CYsKGk29zGspYGMM&#xA;KKG238aZZmkDSIApc9leBiDE5PcgEj7xl4yR72vhKx7edByeNlHiVIH44RIHqtFZkkK1vez27fu3&#xA;pXcodwfoyEsYlzSJEJhHri0/exGvip/gcoOn7i2DIufXrNAKpJ8RCigXqf8AZYBppHuU5Au/Tdr/&#xA;ACSfcP64Py8k+IHfpu1/kk+4f1x/LyXxA461aEUKPT5L/XH8vJfEDS6zZqoVY3CqKAALQAfTicEi&#xA;jjDf6btf5JPuH9cfy8k+IEVbXcNypMZ3HVTsRlc4GPNkJWrZBLsVdirsVdirsVdirsVdirsVdirs&#xA;VdirsVdirsVdiqyaQxxPIELlRUIvU5KIs0gl0EhlhSQqULCvBuoxkKNKCvyKXYq5gpUht1PUHpTE&#xA;KxeQKJGCfZqePyrtmyHJxipGNOfqEfEBSuSs1SKU3uGI/cRtM3+QCR94yQh3mkX3ISW01aY8mtpi&#xA;OwEbU+jbL4zxx6j5sTGR6K0P6Th2mtpSnujAgfSMhIQPIhI4h0RKSo5oD8Q6qdiPoOUmJDIFfgS7&#xA;FV/1ef8A32//AAJyPEO9NFM9HtZo3eV1KKV4gHYnetaZj55gig2QCaZjNjsVdirsVdirsVdirsVd&#xA;irsVdirsVdirsVdirsVQN9qa259OMB5e9eg+eXY8XFueTCU6S1tUvia+pT2AH9MyBhj3NfGWv0lf&#xA;f79P3D+mHwo9y8Zd+kr7/fp+4f0x8KPcvGXfpK+/36fuH9MfCj3LxlZLqFyyESSngevQDDHEL2CD&#xA;Iob1ov51+8ZZwnuY2ujkgZwrSoqnqxYAU+nAQQOSQQm8eo2UaKiXMSoooo5rQAfTmIcUybILaJjv&#xA;X/pa1/5aov8Ag0weBLuK8Y72O+cfzJ03yzFatIrXkl0XCJAybCMDkWP+yGbHs/siepJr08Pf5uNq&#xA;dZHFXW2G3n54aRcUb9GTiQbBi6dPDNxj9mskf4x9rhy7Uif4Sq6J+aemapqkFh9Tlga4bikjMpUG&#xA;lRWmR1PYk8WMz4gaZYtfGchGub0rQ4oXV56h2U8V702rnN6gkbOyxjqm2YratlljijaSQ8UQVY4Y&#xA;xJNBBNOiljljWSM8kcVU4yiQaKg2uwJdirsVdirsVdirsVdirsVdirsVdirsVdiq2V+Ebv8AyqW+&#xA;4VwgWaUsYdmdizGrMak+5zYgU4zWFUI93KXIjjNIz+8rTplwxitzzYcSvDKJYw4BAPSuVyjRpkDb&#xA;YZzIV40UAEN44K2VR1D/AHlb5j9eTw/UiXJNLPy1p01nBM5k5yRo7UYUqygntmPk1kxIjbYtkcQI&#xA;ak8qaO8bSyySJEtW5F1ACgfaJp9Pyx/P5B3L4ESth8n6BPEssMsksTiqSJIrKR7ECmP8pZPJfy0V&#xA;/wDgjRv5pv8Agh/zTj/KWTyX8tF5B+dWnQafqNhbwcjGFkarGpqeHsM672dzHJCRPPb9Lpu0oCJA&#xA;DDLnVdLle/aPSIYRdJGtsqySn6syFeTJVjy50P2vH79zDBMCNzJ4Sb2Hq9/u8nClkib9PP7E18nt&#xA;Z6l560ZI7RLKFniieKFmILJHRnq5Y1YiuYuvEselnZ4jud/fy27m3TkSyx2p9HWOkw2Bc2zMfUpz&#xA;RyCDStNwNuuedZc5yfU9LGAjyRUk6RIXk+BB1dioHh1JymmbXrK/JQvMjZlBU9R338MIHmhCzaxY&#xA;W06205MLkLwBFR8R4qPh5ZbHTzkOIbsTkANFGxzRSisbhh7GuUmJHNkCuwJdirsVdirsVdirsVdi&#xA;rsVdirsVdirsVWypzjdD+0Cv3imEGjaljDqyMVYUZTQj3GbEG3GawqhHtJQ5MchAkP7ytOntlwyC&#xA;txyYcKR+ZvPnlPyfDHHrF9wmkHKG1QGSZlrSoRei7dTQZj5cwBstsMZPJhGof85K+UYk/wBB069u&#xA;pPCQRwp/wXOQ/wDC5jnVR6NgwFW8mfnlY+bdUOjT6YdMuZVLWr+uJ1kZPiZD+7i4niCR16ZdpdQJ&#xA;TqmOXFUbe7WHxadaR+MEZf8A1eI/XmNl2nI+ZZR5B8zf85T+bri6802vlqCci006BZLuFW2aeejj&#xA;mAd+MYQivjmNIt8A8e0XzLr+gTtc6NqVzpsrCkj20rxclG9HCkBh7HIsyHqv/OM/nDUZfzPnt7y9&#xA;lvX1q0lE7TStIzSw0lSRyxYswVXXf+bJRa5VT3jzNY2V75rt4by3juYSYqxzIsi+HRgRm/0eWUNO&#xA;TEkHfk67NESyAEWj7ryh5TWBiui2AO24tYfEf5OY0NfqL/vJ/wCmP62yWnx19MfkFD/lXWgvqOka&#xA;1p8Een3enuHdII1SOZN/hZVoA2+zfr2pb/K2UQnimTOMx1O4/Hcx/Jw4oyiKIeTf85S6z5i0rWfL&#xA;dzpmo3VhE8Nx6bW00kJ9VGUMfgK/FwlA+nNLJz4Pnq+1LUb+X1b66mu5d/3k8jSNv13Yk5Bsez/8&#xA;4xefTp3meXy1fzObXVYwthyqwSeEs6xjrxV1dz4cvnkolhMPefNP/HYg/wCeP/JzN1ov7s/H7nBz&#xA;fUrxyyRuHjYqw6EZUQDzSCyCxuhcwB+jjZx75gZIcJb4mwiMgydirsVdirsVdirsVdirsVdirsVd&#xA;irsVQV9piXB9RDwl7+B+eXY8vDseTCULSxtLvgaenX3BH9cyBmj3tfAVj2F3GjO8ZVEBZiSNgNz3&#xA;w+LHvXgL4e8za9d6/r19q90zNLdytIAxrxSvwIPZFoozWzlxG3NiKFJRNMkScm+gdzkQFJpk35U2&#xA;up6p570k2MbrFaTi5u7ihKpDD8ThiBtzHwb9zTMrSYycgpozT9JfdWkD/cXaN15wxtv7oKfhhz/W&#xA;feWOP6Q+M/8AnIvTp9F/NfVTMrNBqSxX1rIa7pIgRhv2WRGUe2Y5DcJU82tLbUtZvFsNPhM07rI6&#xA;wqRyYRI0r9SOiITTv23yJIiLKQDM0H2D+S/5Q+UfL7xa9BCZNaggS3+sl2KczHSWVEPQycqeFO2U&#xA;6XKZgk97kazDHGQB3Ms1r/lMbb5xZ0Wn/wAWPxdPk/vAyC8/3nf6P1jNdj5uRLkjLH/eSL/VyvJ9&#xA;RZR5PPvzo8rWvmG10K1vLT17KO+eW6mBKsiC1lUIGX4gHkZDsR9nMPV5TGFh2GgwRnI306d/42YH&#xA;p/5V+RrGT1Y9NWWQdDO7ygf7FyV/DNVLUzPV3ENLjjyCVflP5XsbX8+L707MpaabEzWaqKJG80Gz&#xA;n/J48x8yM2Wny2I3uTbrNTp/rkNhGvte1eaf+OxB/wA8f+TmdHov7s/H7nRZvqVcrSjtHuBHcGNj&#xA;RZBT/ZDplGeNi2cDunmYbcpQ3UM0kqRmrQtxfam9K5OUCACeqAbVcgl2KuxV2KuxV2KuxV2KuxV2&#xA;KuxV2KuxVDaoyppl4zEKqwSFmOwACHc4q/PDKm9EeSdJ0/X/ADjp2m6nM0NndyFHZCA2yMyIpINO&#xA;bAL9ORzSMIEjmuCAnkAlyL7B0Ly3peheSDa6Zbra2aSfuo1qaksAzMxJZiadSczuxZk0T1JYdqwj&#xA;GVR5ABkdj50sLeyt7doJS0MSRsRxoSqgbb+2Z2Xs6cpE2Ny4EdQAAHjn/OSuk/4x07SL7RrN31Ww&#xA;lkhkVmjQtbyryO7MK8HQUH+UcwdZg8CIlIjc05mkhPUSMYCyBbzD8rPy58z2/nGx1C/h+o21kzSk&#xA;sylnPEjgoQnrXcnNTnzxnExj6iXbafQZMcuOfpiH1PoHmay0yya3kikd2kLll403AHc+2bTs/svJ&#xA;4QJ9JO9F1vaGthLLtuBsoTanFqPma1uYlZELxrxaldj7VzcjCceAxPm6sz4pgsrvP953+j9YzUY+&#xA;bly5Iyx/3ki/1cryfUWUeShrli97pc9vH/eMAY/dlIYD6aUzG1GPjgQHJ0uUQyCR5PMbu4itLlrW&#xA;c8bpCFNv1k5HoOI33rtmiMCDVbvUQiZR4h9Pf0egeVNAh0yzM7xKuo3gV7uSgD7bpGT1olfvrm70&#xA;2LghXV5zW5/EyGvpG37Us80/8diD/nj/AMnM3+i/uz8fudTm+pVytLsVTK11h0AScFwOjj7X0+OY&#xA;88F8mwT70fFf2LVKyKpbduXw70pvXKDjkzEgq/WLf/fqf8EMjwnuTYd9Yt/9+p/wQx4T3LYVAQRU&#xA;bjxyKXYq7FXYq7FXYq7FXYq7FXYq7FWEfnT5lXy9+WutXYbjcXMJsrXx9S6/dVHuisz/AEYCmI3f&#xA;D2VtyVLJLBcCSJikkT8kdTQhlNQQcnVtN0X2f+Qf5jJ5z8mm3vUVdS0grbXv8squC0cu/d6EMPEV&#xA;75Zhjwio9EZJGRuXV6Fd/oOztZru6W3gtrdGknmkCKqIgqzMT0AGXnLMdS1iA7nzl5n/AOcip5td&#xA;l/Qei6dNoMVUgF/bs8s2+83wtGY6/sjw6+A1ubUHId9x5uw08JY94kxJ7tlXQ/8AnIjSLS4El75Q&#xA;twzDjJPazsKDavGKVXXqP5h88hhyDHK4ij5NuoyZMseGUrD3Lyh5i8u+atGj1bT7GSG1lJC/Wrb0&#xA;qkbHixBjffaqMc2UNRKXIl1k8QjzAT1bbT0YMsUSsNwwVQQcmZzPUseEOu3Q270Ydu/uMGMG1lyV&#xA;bXUbKO3jR5QGUUIof6YJ4pE8kiQpiKefbvW/MMun6K6QaVY3At7u9NHmmlDAFYkOyRjcF2B5fs06&#xA;5tz2XHDhE8tmchYHQDzPU+XTq4Y1JnOo/SDzZNINKs5bnVXt4/rrgfvqAyNQBFUMdxsO2aaGmEp7&#xA;cy7GWqnwcJPpHRjkX5o2Vrqx0zU4WFArNeR0Kr6h6OnX4R3Fflmwy9mnh4on4OHHU70VbXb22vNT&#xA;gmtn9SOsI5UI39T3Ay3TY5QxkHz+5jlkCdkXlDN2KsfvfOFpb3LQxQmdUPF5AwUVHXjsa5sMXZ8p&#xA;RsmnmtV7S48eQwjHjA5m6+XemunanaahB6tu1abOh2ZT7jMTNhljNF3Oi1+PUw4oH3jqEXlTmOxV&#xA;Xs7yW2kBU1Q/aTsRlc8YkGUZUyJWDKGG4IqD7HMAhvbxVTluI4mVW5FmBICqzGgpX7IPjkoxJQTS&#xA;6ORJEDoaq3TYj8DgIo0kFdgV2KuxV2KqNxLcI8Qii9QO1JDWnEU65OEQbs0gkq2QS+ef+ct9c42n&#xA;l/QkevqSTX08fcemoihb6ecmQkWyA6vm3Is0Fp9jJqWqRWkRo1xJx5UrQVqWp7DfJSNC2uMeKVPo&#xA;j8p7u08rahHptuvDT75lScsasZT8KSE+Ndj2pkNNqCJ78i5GfTjg25hmH/OQOk6veflXfXNhIyxW&#xA;dzBLfxqTWS2BKstB1CyPG59lzJ7QJ4KDiaYDifLUbco1PiBmqDsF2Kv0BtdKsrLQ4dMs0CWlrAkN&#xA;sg6BY1AT9WbTGeEh10t0kzYuOtkRJEKOKq2xGEGjYUhJfMhs9L0DUdR4kNa28kkdXfdwp4Dr3agz&#xA;N0fFlzRh/OkGjNUYGXcGEfkVdGa3mtSeTQ3Il360kT+sZzee00KIl3xr5H9rhdmSsEebP/N2s20E&#xA;UrTyGO2tweTKdy52+H37DOe0eE/EuwzTeOw38t7f3NxK7O8lCC9C3FdlBICjYU7Ztc8KiHDgbJeo&#xA;+TpLW/0mJnBNzasEf4m6rujUr4Zqs05A10LlwAIZLmM2oTVp2g0y5lQ0dY24kdiRQHLdPHimB5uF&#xA;2jlOPTzkOYiXn1oA5liIqZEPH/WX4h/xGmdDk2o+b5xogJGUP50TXvHq/RXxROgag1lqUT1pFIfT&#xA;lHbi3f6DvlWqxccCOrf2PrDg1ET/AAnY+4/q5vQ8559NdirsVZNbIUt4kbqqqD8wM10zZLkDkpTy&#xA;y/WVhjkER48gWFQ5rTiOnSm9PbJxiOGyLQTusVmWcluVxcKpBSMAKgahp8RXrQdTXCRY7gjq1EJO&#xA;LCCb00BPqJKvxRk7mnTx71xlXUfLqo8lezmaWAMx5EErzHRqGgYfPIZI0WUTYVsgl2KuxV2Koe6v&#xA;4LYUY1fsg65ZDGZMTIB8f/n1q0mteYpdYNfq8UrWyU3VY1oqGvYHgT8zmGJXMhzDGoB5Nc3aBCsb&#xA;cmO1R2ywBqlJk/5Y+XLu81B9UKFbe1Vlic7BpHHEgeNFJrmNq8tCuruOxNHxzM5D0gEfE7fc9BIZ&#xA;Hoaqyn6QRlEZWLXU4DimYn8B9IeVDbeZfIUS36epBqltLb3qHbmGDQS9P5qHNoZ+IAT3OklDgkQ+&#xA;JNc0O58v6/qeg3R5T6ZcyW5ehAdUYhXFezj4h7ZrTGjTmxNhB4pfdX5Z63+m/IGg6kW5SS2caTN1&#xA;rLCPSlP/AAaHM+BsBwZiiVtwFikkDEKqMQSdhsaZs+ICNlxhEk0FC4urW2ga4uZkhgUVaWRgiAe7&#xA;EgZbCBmaiLJ7mEiI89nk/wCaf5k6DfaFNomkXBu5rh0FxMgIjVEYOQGIHIkqPs7U751fYnY+WGUZ&#xA;cg4QOQ6up12shKHDE3aU/ktq8en6tfeswSP6qZyzGgBi2BP/ACMrmX7R4ePHGv51fP8AsauzZ1I+&#xA;5vzV5lm1m8IQlbKIn0UPVj/O3ufwzVYMIgPNysk+Io7yFoS6tJqSnZ47cCFj2kZwV/4hTKNdk4QP&#xA;e2YI2Snvkq/ew1w2c1UW5rC6nakik8a/TVfpzBzxuNt+M0Xo+YLegtajMmk3aL19JiPoFf4ZdppV&#xA;kj73A7UgZabIB/NLzy3l9KeOT+RgT8gc6KcbBD5ppsvh5Iz7iHXMXpXEkfZGIHyrtjA2AU6rF4eW&#xA;UO4l6RpkrXVjbSAcnljUkDf4iN/xzm80eGZHcX0/Q5fEwwl1MQmq6PeMKkKvsTv+FcxTni5vAUbZ&#xA;6SsTiSZg7D7KjoD45Tkz3sGUYUmGUNiGuG5zxQqpZkZZX8Au4HX3GWQFAliebSTRW8kqTsI+Tl1k&#xA;bZWB9ztUdKYTEyApQa5rHRrlbt4h8MsXpRk7BiA2+/b4uuSB4avobRztEwTLKnIAqQSrK3UEdRtt&#xA;lUo0WQNqmRS7FXYqgtSv/q6cE/vm6ew8cuxY+LnyYSlSROWYkknkerHc1zMppeFS2Fx5b19E1eyS&#xA;6hQsJIZVDxTwuCjU5Di1VY9e/XNFRwz3DuLGWGyBvvIfkb9ISXFnpsL2zt6lufi48G3AKV4/D0Ip&#xA;1zFz5ZRkQD6ej0ei0eDJjjMwHF19/u5JnDBDBEsMEaxRIKJGgCqB4ADbMQm3bxiAKGwdDoE+rXN0&#xA;lrvcQWrXCRgfbKOqlfnxbb3zL0mMzJA6C3T9tGMccZH+dXzB/U9x8pzW2jfl9pU11IsEa2sT85CF&#xA;UNcEMoJJ7tIM2eIChbyWWzI0+Y/+cjNNisvP0GppXhq9mjzPWtZYSYqinb01TKtdECd94Z6WXpp5&#xA;pmI5L6o/5xZ13655JvtJdqyaXdkovhDcrzX/AJKLJmXgO1OLnG7PfMdvdNNKtu1CTUrsOQYb7nMn&#xA;UY8k8QED+1GkyY4ZLmP2MA83fltd+ZI7ZGuY7QwtUykNIwSh+EKOI6nxzbezepyaAyMzxRkNo3tf&#xA;ffT4Df4NHbXhaoAQFSB+r9Hn8UFpv5D+XoWV7++uLwqQSiBYUb2I+NqfJs6HN7T5pfRGMft/V9zp&#xA;YdlwHMkvP9VaGPzfrEVmohtY5JLeOOPZfThcIoFO3wA5tsl/lMZlvI0fmCXEjXiyrktzWuS9P/KW&#xA;FYtL1K8chUaVUZzsAIkLGvy9TNR2kbkA5emGxKXBpdY80+raJT1Zw602oiEfEfDYVOQ+mG7LnJl2&#xA;ufmD5T0S++o6he8LoAGSNEeQoG3HLgGpUb065Ri0eTILiNmc80YmiU307U9M1ayFzY3CXVrICOaG&#xA;o9we4PscpnCUDRFFl6ZjvBeeXUDW9zLA3WJ2Q/7E0zpYS4og975PqMRx5JQP8JI+S+93eOT/AH5G&#xA;jH5gcT+K5HHyI7i5Gv3lGX86ET9lH7Q9O/L6NX0CGc7uC8Y9grHOZ7VNZiH0D2dlxaOB94+0sozW&#xA;O8SzVb2+initLaNed0rCOYtTiw67ewzJwY4kGUj9LXORuh1a0q9vnuJLK6jBe2UepMGryJ+zt7jD&#xA;nxxAEonn0WEjdFHzW0crKxLKVBFVJUlT1BI+WURmQzItS3tZVUGRrdlY8eLScWBFACoJpueuS+od&#xA;L+SOTUVu06CWZ5A5qUAJTgK7UUU3p/NiZ8OwpAFoiGJIoxGvQdz1JO5J9ycrlKzbICl+BLsVWyyp&#xA;FE8rmiIpZj7AVwxjZoIJpik+rWE0rSO81WNaemu3t/eZtI6eYFbfP9jjGYKz9I6b/NN/yLX/AKqZ&#xA;LwZ+Xz/YvGEBrNr5c1iya0vlmdDujiNA6N/Mp9TY5Xk0kpiiB8/2M8ebgNh5RqGlS6Tqc1hDMs8C&#xA;UdJHHFuL9AygkBtvHOY12DwsnCS912Hk48HF/SP6Gswnbso/LWNJfNYhZ+BmtZkQ0ruGjfxHZDmw&#xA;7OycGT4Ol7fxmWn90gfvH6Xq3mLy1DrflufRZpfTEiKI51X7LRkMh413oV3Fc2GUCVvI45cJt8if&#xA;nh5c1Py35l0vSL+5S4C2xntzGzFRHJIy/ZYDiaxnYZgZImJALmCYluGB5Fk9l/5xb1wWfnu60t3p&#xA;Hqtm4Rf5prciRfuj9TL8B3ac42fT17pguZRJ6nDahFK9PpGbHHm4RVOFKFof9Bf8X/8AC/25P8x5&#xA;I8N36C/4v/4X+3H8x5L4bxy//Jc2euSGTWjM90S5b6txo0r1Nf3rVzrD2742EAQrh/pXyHudT+Q4&#xA;J3xXfl+1F/8AKmfjvE/TH+8jItfq32uZp/v3amYP8qbR9P1X1/Y3/lee/JNm8j3Pl3TbnR49T9dL&#xA;4rK0vo8CoFVZaeo1eVB3yiOpGc8dVTZ4XAKvmnejeUrbQDaxrL9YuNRNHuCnDio40ULVtvi8cxJZ&#xA;zkEjy4W0Y+GvN4J5oEEXn/X7TVP7qa8uIRckfFCPVJhlFOwAWo7rXOl0xvDAx7h+11mT6yD3rPKX&#xA;mbUvJvmJllqbbn6WoWwNVZAftrTYleqnv8jh1OCOeHn0XHkMJPUfMggfUBd27CS3vIknhkXdWVhS&#xA;o+dK5jaKR8OjziaeP9ocPBqTIcpgH9H6EFNvZ27fyl0+4hv+N8vj9RcDNvgxnu4o/aJf756R+XV4&#xA;i6Ilu54nm5QnoTXfOc7WgfFt7v2Zl/ggHmfvQmo/nP5CsdQ+pNdvOVbhLPBGZIUNd6vtyH+oDl2H&#xA;2e1c4cXCB5E7/j307OfaGKJq2T3Wn2epxR3kMpLvEGtbiNjxow5Iwp2Nc1kMssRMSOu4coxEtwv0&#xA;7SIbRvWLNJdMtJZGYnkTuTvkc2cz2/hTCFe9H5QzdiqlNdRRSxRPy5TGiUBI2FdyMnGBIJ7kGVKu&#xA;QS7FXYqg9XeRbF/TYI5KgMQGA3B6HbLsAHFuwnyY/wCrqH/LQn/IiL+mZ1Q7vtLTZ73erqH/AC0J&#xA;/wAiIv6Y1Du+0rZ73erqH/LQn/IiL+mNQ7vtK2e949r19Je+aNWmkYMVlEPJQFBEI9OoC7b8c5XW&#xA;zEssiO/7n0XszF4emgPK/nv+lC5iOcmXlm9msvMmmzwv6chm9INQGnrK0XQ7ft5l6KQGWNiw4Hau&#xA;Mz00wO6/lu9gj1HV1kVnug6g1ZDGgBHhUb505x4yPp+188Epd75Z/wCcldaGpfmxJGD8Gn2lrap8&#xA;mU3B7eNxmh1IrJXc7LB9NvOsqbk68l+YH8u+bNK1ta0sbmOWUL1aKtJV/wBlGWGSiaNokLFPubUb&#xA;mV9NS7sbgKjBZFlUK4aNhsRXxqDm20/CZURbrclgbJBa61rM7MPrXHiOvpof4Zscmnxx6faWiOSR&#xA;6qlxqOvrBI0FyJZlVjFGyIiswHwqW4txBPehyEMWIkWKHxSZTrYvCfNH/OR19p/my/0q60IT3GnX&#xA;MlqLkXYUMIXIV+At9uVK0yr83GFxEdvey8Iy3JRdp/zkpZzGUy2b28lwVM/NwwLKaihWI9/YZfiz&#xA;aeQFkxry/UWEoZByFsr8t/mWfOerR2yxBwFIe4jcSCMBWZQ6qiU5cSBXMsQxQgTjkD5NPFMyqQpm&#xA;hvL+e7hjkn+K2J9FuK7U9gN/s98o8OEYkgfVzbOIk+55F+eHlueLV08xoOcN8Fiu2AApOi8VJAoP&#xA;jRfvB8c23ZWYcPh93L3OHq4b8XeweU/pPRxP1vtMVY5vF7UnjG/ziYhD7FfDNiPTKuh+9x+Y9zM/&#xA;JOtm+8urp8zVn0uQrET1ME3xKP8AYOrfeMolj4chI5S+8Og9oIcWOEv5pr57/oZH108/5Mo/4ZT/&#xA;AM04P4/g6Lnpvdk++P8Ax1Aec/NUun+VbXRrRylzfeo9w6mhWDmVp/s2BHyBy/s/QjJqJZZco1Xv&#xA;r9D1HZuYx0UYjrxfKy8xzpkvpPyDfX8fkzR0MjClsnEGh+H9nr/k0zzftTHA6mZr+J6TSyPhx9yf&#xA;/pK+/wB+n7h/TMDwo9zkcZXJqt8p/vOQ8CBgOGK8ZTCz1aOYhJQI3PQ/sn+mUTwkbhsjO0fQbe3T&#xA;KGbsVdirsVQergmyb2IJ+/LsH1MJ8khzNaXYqpzyGKCSUIZCilhGu7MQK0HucjI0LZQjxSAurfOc&#xA;XmvQrW6nF5qMCSsx9UGRSwcE1DAEkGpzlDhmehfR5a7TxH1x+aPg80+XJyBHqMFT05OFrX/WpkTh&#xA;mOhRHX4Jcpx+aOa8ColxbSK0iOjQshDfGrBlpT5ZGFiQrm5EjCcSCRwkPclPJQaEVFaHrnYPmBFP&#xA;i78zL2W8/MnzBNKSWTUZoRXf4YJPRUf8CgzntQbyH3uzxCohK8g2uxV9b/lB55sr/wDKjT4dQnJv&#xA;bVZdOCBSWb0Noqf6sTx1J75mYtRHGImR6tP5SeQnhDIdLHwyN4kD7s6DOeTqYI7KGb4w/Ny3Fv8A&#xA;mvr0ew5XXqbbf3sayf8AG2a7N9RciHJIcqZvc/8AnGCKs/mOWv2FtE4+PIzGv/C5laXq1ZXtH2NT&#xA;+bf8SH9ubXnjcX+JU1rSLPWNKudNvF5QXKFG8VPVWHup3GU4shhISHMMpREhRfN91Z3vlbzJLaXi&#xA;czbsY506LNBIKGntJG30Z1MJjLCx1+91RBhKiidIYaJ5pWFZOdpcAIkxFOcM1Hib2r8NfDDfFG+r&#xA;gdp4ePDIeV/Ld6TH/vFOKftxmv8AwQ/jlB+ofH9DyOL/ABef9aH++/W818zTmbWrkk1CEIorWgUA&#xA;Gn01zpNHGsQd/oBWGPua8uaJPretWumw1Bnekjj9iMbu30KMdZqRhxGZ6ff0dhhxmchEPpO3t4re&#xA;3it4V4QwoscajoFUUA+4Z5vOZkSTzL0gFCgqZFLsVdiqe6VdNNAVc1ePYnxB6ZhZoUW6BtG5Szdi&#xA;rsVU7mL1reSPuwIHz7ZKEqNoIsMZIIJB2I2IzYOO0SAKnYDCrlYMAwNQehxIV8C63E0Os38THk0d&#xA;zKrMe5VyK5rDzckIq3blAh9gPu2yDJMdCJXzDpLKaMLyGhHUfGD/AAwx5oL7gzauK8M8xSCTX9Sc&#xA;Cga5lpT2cjON1UryyP8ASL2GljWKI8gu02G2mt2SSJHKtvyUHrv3zEmSC5AAKtLpemcWf6pDyVTR&#xA;vTSo28aZETPevBHuZt5f0tP8PWM8ISIReqjIFpXm48PDjm+02glqMMeEixxc/e6nLr44Ms4yBo8P&#xA;L3ftT+2ivRCPSrwPcECpG3fOohGMIiMtyAA85klxSMhyJKrw1PxP3r/XJXjYVJ5d54u/ybs/NEy+&#xA;bIoP0/KsTzNJBcSsw4BIyXiRk+yoHXKZywXvz+LOIn0Sj9L/APOPX++7b/pFu/8AqnlfHpvwCyrI&#xA;zv8ALz/CE9jd3XkqNEtGlEV28UckQMiLyAImCE0WTt45djOH+FhIT6smcTx3CNN9qoNSQdgfbLxR&#xA;jsw3vdOMw2159+b3k0avpH6WtErqOnKS4HWS3G7L80+0PpzZdnanglwn6Zfe42pxcQscw8dLNd6C&#xA;koP+k6S4XkOv1eZiVP8AzzlqP9mM3nKX9b73AO8fc9P0q7F1ov1kf7vWFvkSCSMomPWPi8SYeHjy&#xA;x7pRH2yeY383rX1xMDUSSOwPsWJzqcUaiB5PQYY8MAO4B69+T/lj6npj61cJS4vhxt6jdYFPX/Zs&#xA;K/IDOQ9oNbxz8Ico8/f+x3vZ+Go8R5l6JnPOxdirsVdiqP0ViLph2KGv0EZRqB6WePmneYbc7FXY&#xA;q7FUn1ayKObhB8DfbHgfH6cy8GS9i1Tj1SwgEUO4OZDW5VCgKBQDoMSVfEH5oaedP/MTzFbUoPr8&#xA;8qDwWZzKv/CuM12QVIuRHklGnvWIr3U/gcqLIJhYuyajZOp4ss8ZVh1B5YRzSX3MSAKnYDqc2riP&#xA;ALiX1Z5JT/uxmb/gjXOHkbJL20RQARujBzLKAKqE5N7UYL/xtkJxsX3MgaKYz/3En+qf1ZSObJnm&#xA;hEDyvYr/ADFyfods7fsMfuI/H/dF5HtY/v5fD7gyC0XjbRj2r9++ZuQ+ouFHkrZBL5Z/5yZtfR/M&#xA;mzmptcafA5NKVKzSoRXuaKMwtQPU3Y+TzjMZtfUP/OPNn9X/AC7SWn+9d3PN93GL/mVmfpx6WjJz&#xA;Z5qi7xt8wcz8B5uPNGxNyjRvEA/hlEhRZhdgS8J83eVk8u+cvQjX09G11XiiPRI/W+Er/wA8pCrj&#xA;2pnRaXUeLiv+KP4+112XHwy8ir6BeSWvkW5MnwzW0rwkHsycyB97gZlwhx5oh5fXaf1kfz8kPsjK&#xA;2PeUvL8uva9baegPpMedy4/ZhU/Gf4D3ObrX6sYMRn16e92uDF4kwH0dDFHDEkMShIo1CIg2AVRQ&#xA;AfIZ5zKRJs8y9GBS/AlpuXE8ftdq4hWo+fBef26b0wmr2ULsCppokJrJMelOA/WcxtRLo2Ywm2Yr&#xA;a7FXYq7FXEAggioOxBxVKLzSGBL2+694+4+WZWPP3tUodyWsjIxVgVYdQdjmQDbW+Tf+cldJ+pfm&#xA;Q12B8Op2kFwT25JWAj7ohmFqB6m6B2YB5d0q71Br9rZS/wBRtWu5lH++0kRGP0epXKatna71GjeO&#xA;RDRkdWU+4NRkQyfcmqzehpd5N09KCR/+BQnNjmlUJHuBaMMbmB3kPBc4t7NlflPTvU0HWb0jdRFH&#xA;GaeDh3/hmbiw3p8kvd99uFmy1nxx9/3Uhp/7iT/VP6s1Q5uwZ3o5J0PT07iMmnzc53nYwrTxLx3a&#xA;f9/JkyjioA6AUy0lxm8VfN3/ADlRbhfMPl+62rJbSxnx/dyhv+ZmYep5htxvI8xW59efk/afVPy1&#xA;0GKlOUDTf8jpXl/43zY4R6Q40+bJ9RWtvX+Ug/wzKwn1Nc+S6xblbJ4io/HBlHqWPJbqV8lhYy3b&#xA;qXWID4R3JIUD7zjhxmchEdVnLhFvPvOeoQ+ZtHNhLaC3mR1ltroSFjG696cFqCpI65udNpfClxcV&#xA;/D9rhZcvGKpjt5pN1cWV3arMsa3l2byU0J+J1UMKbdXTlmy02SOKXFzoU4GfT+JMSv6b+2vx8VPQ&#xA;vM1n5AmlW4sjfz3wUi4RxHwjQ/ZClW6k16+GZGp0cu0AKlwCPTnuzx5hpzuLt7XZXcV5ZwXcVfSu&#xA;I0lj5bHi6hhX6DnF5IGEjE8wadzGVgHvVsgydirsVRFpYzXLCg4x93PT6MrnkEWUY2yCGJIo1jQU&#xA;VRQZgylZstwFLsCXYq7FXYqxP8xNK89ajp9tH5S1GPT50kJuudVZ0p8PGQB6UPUcd/Hbfbdk59Lj&#xA;mTqImYrb+xxNXDLIDwzTAP8ABn/OQX/UxRf9JB/6pZvv5Q7I/wBSP+l/484H5fV/zvt/YtfyR+fs&#xA;go+vwsPAzk/riwjtLskcsZ+X/Hl/Lav+d9v7GPeYfyI/MvzHLDLrlzZX8lupWF5ZmqqsakCkY8MT&#xA;2l2SeeM/L/jyjTav+d9v7EPpP/OPHn3SGuW017C2a8ge0uSkrfHBJTnG1Yz8LcRXEdo9kj/JH/S/&#xA;8eX8tq/532/sQp/5xk83Hqmnf8jn/wCqeR/lDsj/AFI/6X/jyfy+r/nfb+xlU/5b/nhPDJBNrUDx&#xA;SqUkQztQqwoQf3XfJy7T7KIo4zXu/wCPIjp9WDYlv7/2JT/yoz8zv+Wuz/5Hv/1TzG8fsT/Uf9j/&#xA;AMecnj7Q/wBU+39iNtvyl/OK2s5LO31O1jtZSWkiEzUJIAJP7r2GWDW9jiJiMXpP9H/jzVKGuMhI&#xA;z9Q8/wBigfyY/Nggg39oQdiPXb/qnlPi9if6j/sf+PN3idof6p9v7EZF+V/51RIiR6vbqkYARRO1&#xA;AB/zyzMx9qdlQjwxxkD3ftcWem1cjZlZ9/7ER/yr789v+r5B/wAjz/1Sx/lXsr/Uz8v+PI/K6r+d&#xA;9v7Hf8q+/Pb/AKvkH/I8/wDVLH+Veyv9TPy/48v5XVfzvt/Yk3mH8jfzP8xm3OuXdnfm05/VvVmY&#xA;8PU486UjHXgv3ZGXaXZJ54z8v+PJGm1Y/i+39iV/9Cy+b/5NP/5HP/1TyP5/sj/Uj/pf+PJ/L6v+&#xA;d9v7GTWX5Y/nXY2cNnaavbQ2tuixQRLMQqogooH7rsMsHanZQ/yZ+X/HmP5XVfzvt/Yqv+Xf55up&#xA;VtbgKnqPXP8A1Swjtbssf5M/L9qPymq/nfb+xqP8ufzyjXimtwAdaeu3/VLE9rdlnnjPy/ao0mq/&#xA;nfb+xbcflr+d9zC0M+s28kTU5IZ2oaGo/wB1eIww7X7MibGM37v2qdJqjsZD5/sQf/KnPzb/AOrj&#xA;a/8AI9v+qWXfy/2f/Ml8v2sPyGo7x83f8qc/Nv8A6uNr/wAj2/6pY/y/2f8AzJfL9q/kNR3j5oS9&#xA;/If8yr1la7ubKZkFFLTPsD/zzy7H7TaKH0iQ+H7WEuzM0uZCcQflv+eEEEcEOtW6QxKEjQTtQKoo&#xA;AP3XYZhy7X7LkSTjNny/a3DSaoChIfP9ip/yr789v+r5B/yPP/VLI/yr2V/qZ+X/AB5P5XVfzvt/&#xA;Y7/lX357f9XyD/kef+qWP8q9lf6mfl/x5fyuq/nfb+xw/L/89gajXIP+RxP/ADKx/lTsr/Uz8v8A&#xA;jy/ldV/OH4+CceXPKf532+t2U2p+YIW06KQNcxlzNyjH2k4GNK8un2hTrmJq9d2ZLFIQxHjI26b+&#xA;+23Dg1QkDKWz1rOTds7FXYq7FXYq7FXYq7FXYq7FXYq7FXYq7FXYq7FXYq7FXYq7FXYq7FXYq7FX&#xA;Yq7FXYq7FXYq7FXYq7FXYq7FXYq7FXYq7FXYq7FXYq7FXYq7FXYq7FXYq7FXYq7FXYq7FXYq7FXY&#xA;q7FXYq7FXYq7FXYq7FXYq7FXYq7FXYq//9k=</xmpGImg:image>
               </rdf:li>
            </rdf:Alt>
         </xmp:Thumbnails>
         <xmpMM:InstanceID>xmp.iid:eacc9c47-9a55-a842-8e8f-111a9cd6eb8a</xmpMM:InstanceID>
         <xmpMM:DocumentID>xmp.did:eacc9c47-9a55-a842-8e8f-111a9cd6eb8a</xmpMM:DocumentID>
         <xmpMM:OriginalDocumentID>uuid:5D20892493BFDB11914A8590D31508C8</xmpMM:OriginalDocumentID>
         <xmpMM:RenditionClass>proof:pdf</xmpMM:RenditionClass>
         <xmpMM:DerivedFrom rdf:parseType="Resource">
            <stRef:instanceID>uuid:7e472c72-ee97-47c8-8e29-c5eab47cb3b8</stRef:instanceID>
            <stRef:documentID>xmp.did:7AE2FBE488A8E9119C17E8C2DC4DB3E5</stRef:documentID>
            <stRef:originalDocumentID>uuid:5D20892493BFDB11914A8590D31508C8</stRef:originalDocumentID>
            <stRef:renditionClass>proof:pdf</stRef:renditionClass>
         </xmpMM:DerivedFrom>
         <xmpMM:History>
            <rdf:Seq>
               <rdf:li rdf:parseType="Resource">
                  <stEvt:action>saved</stEvt:action>
                  <stEvt:instanceID>xmp.iid:D4434AF877C4E711A90EC9D8BFD2844E</stEvt:instanceID>
                  <stEvt:when>2017-11-08T18:28:40+07:00</stEvt:when>
                  <stEvt:softwareAgent>Adobe Illustrator CS6 (Windows)</stEvt:softwareAgent>
                  <stEvt:changed>/</stEvt:changed>
               </rdf:li>
               <rdf:li rdf:parseType="Resource">
                  <stEvt:action>saved</stEvt:action>
                  <stEvt:instanceID>xmp.iid:557A0155CACBE811AF87D79B9A02ED8B</stEvt:instanceID>
                  <stEvt:when>2018-10-09T20:50:59+07:00</stEvt:when>
                  <stEvt:softwareAgent>Adobe Illustrator CS6 (Windows)</stEvt:softwareAgent>
                  <stEvt:changed>/</stEvt:changed>
               </rdf:li>
               <rdf:li rdf:parseType="Resource">
                  <stEvt:action>converted</stEvt:action>
                  <stEvt:parameters>from application/postscript to application/vnd.adobe.illustrator</stEvt:parameters>
               </rdf:li>
               <rdf:li rdf:parseType="Resource">
                  <stEvt:action>saved</stEvt:action>
                  <stEvt:instanceID>xmp.iid:E94A0A2811CDE811B076F8DE4D8655B6</stEvt:instanceID>
                  <stEvt:when>2018-10-11T12:54:51+07:00</stEvt:when>
                  <stEvt:softwareAgent>Adobe Illustrator CS6 (Windows)</stEvt:softwareAgent>
                  <stEvt:changed>/</stEvt:changed>
               </rdf:li>
               <rdf:li rdf:parseType="Resource">
                  <stEvt:action>saved</stEvt:action>
                  <stEvt:instanceID>xmp.iid:171B6D346D11E911A853A871739DB653</stEvt:instanceID>
                  <stEvt:when>2019-01-06T12:36:41+07:00</stEvt:when>
                  <stEvt:softwareAgent>Adobe Illustrator CS6 (Windows)</stEvt:softwareAgent>
                  <stEvt:changed>/</stEvt:changed>
               </rdf:li>
               <rdf:li rdf:parseType="Resource">
                  <stEvt:action>converted</stEvt:action>
                  <stEvt:parameters>from application/postscript to application/vnd.adobe.illustrator</stEvt:parameters>
               </rdf:li>
               <rdf:li rdf:parseType="Resource">
                  <stEvt:action>saved</stEvt:action>
                  <stEvt:instanceID>xmp.iid:92C7DC776012E91194F6DFE8FA66FEDB</stEvt:instanceID>
                  <stEvt:when>2019-01-07T16:42:37+07:00</stEvt:when>
                  <stEvt:softwareAgent>Adobe Illustrator CS6 (Windows)</stEvt:softwareAgent>
                  <stEvt:changed>/</stEvt:changed>
               </rdf:li>
               <rdf:li rdf:parseType="Resource">
                  <stEvt:action>saved</stEvt:action>
                  <stEvt:instanceID>xmp.iid:FBB92077C518E911A96BB0C0C6CCB05E</stEvt:instanceID>
                  <stEvt:when>2019-01-15T19:59:59+07:00</stEvt:when>
                  <stEvt:softwareAgent>Adobe Illustrator CS6 (Windows)</stEvt:softwareAgent>
                  <stEvt:changed>/</stEvt:changed>
               </rdf:li>
               <rdf:li rdf:parseType="Resource">
                  <stEvt:action>converted</stEvt:action>
                  <stEvt:parameters>from application/postscript to application/vnd.adobe.illustrator</stEvt:parameters>
               </rdf:li>
               <rdf:li rdf:parseType="Resource">
                  <stEvt:action>saved</stEvt:action>
                  <stEvt:instanceID>xmp.iid:00BA2077C518E911A96BB0C0C6CCB05E</stEvt:instanceID>
                  <stEvt:when>2019-01-15T20:05:11+07:00</stEvt:when>
                  <stEvt:softwareAgent>Adobe Illustrator CS6 (Windows)</stEvt:softwareAgent>
                  <stEvt:changed>/</stEvt:changed>
               </rdf:li>
               <rdf:li rdf:parseType="Resource">
                  <stEvt:action>saved</stEvt:action>
                  <stEvt:instanceID>xmp.iid:eacc9c47-9a55-a842-8e8f-111a9cd6eb8a</stEvt:instanceID>
                  <stEvt:when>2020-03-09T07:56:32+01:00</stEvt:when>
                  <stEvt:softwareAgent>Adobe Illustrator CC 22.0 (Windows)</stEvt:softwareAgent>
                  <stEvt:changed>/</stEvt:changed>
               </rdf:li>
            </rdf:Seq>
         </xmpMM:History>
         <illustrator:StartupProfile>Print</illustrator:StartupProfile>
         <xmpTPg:HasVisibleOverprint>False</xmpTPg:HasVisibleOverprint>
         <xmpTPg:HasVisibleTransparency>False</xmpTPg:HasVisibleTransparency>
         <xmpTPg:NPages>1</xmpTPg:NPages>
         <xmpTPg:MaxPageSize rdf:parseType="Resource">
            <stDim:w>750.000000</stDim:w>
            <stDim:h>500.000000</stDim:h>
            <stDim:unit>Pixels</stDim:unit>
         </xmpTPg:MaxPageSize>
         <xmpTPg:PlateNames>
            <rdf:Seq>
               <rdf:li>Cyan</rdf:li>
               <rdf:li>Magenta</rdf:li>
               <rdf:li>Yellow</rdf:li>
               <rdf:li>Black</rdf:li>
            </rdf:Seq>
         </xmpTPg:PlateNames>
         <xmpTPg:SwatchGroups>
            <rdf:Seq>
               <rdf:li rdf:parseType="Resource">
                  <xmpG:groupName>Default Swatch Group</xmpG:groupName>
                  <xmpG:groupType>0</xmpG:groupType>
               </rdf:li>
            </rdf:Seq>
         </xmpTPg:SwatchGroups>
         <pdf:Producer>Adobe PDF library 10.01</pdf:Producer>
      </rdf:Description>
   </rdf:RDF>
</x:xmpmeta>
                                                                                                    
                                                                                                    
                                                                                                    
                                                                                                    
                                                                                                    
                                                                                                    
                                                                                                    
                                                                                                    
                                                                                                    
                                                                                                    
                                                                                                    
                                                                                                    
                                                                                                    
                                                                                                    
                                                                                                    
                                                                                                    
                                                                                                    
                                                                                                    
                                                                                                    
                                                                                                    
                           
<?xpacket end="w"?>
	</metadata>
<g id="BACKGROUND">
	<rect x="125" fill-rule="evenodd" clip-rule="evenodd" fill="#FFFFFF" width="500" height="500"/>
	<rect fill-rule="evenodd" clip-rule="evenodd" fill="#FFFFFF" width="750" height="500"/>
</g>
<g id="OBJECTS">
	<g>
		<g>
			<path fill-rule="evenodd" clip-rule="evenodd" fill="#D4DFFC" d="M577.024,333.699h57.939h1.506
				c31.995,0,58.171,26.177,58.171,58.171l0,0c0,31.993-26.176,58.169-58.171,58.169h-169.82H437.4H133.821
				c-51.807,0-94.194-42.387-94.194-94.192v-0.001c0-51.806,42.387-94.192,94.193-94.193h0c21.905,0,39.827-17.922,39.827-39.827
				l0,0c0-21.905-17.922-39.827-39.828-39.827H85.889c-22.774,0-41.407-18.634-41.407-41.407l0,0
				c0-22.774,18.633-41.408,41.407-41.408h88.268c8.867,0,16.12-7.253,16.12-16.12l0,0c0-8.867-7.253-16.12-16.12-16.12h-23.744
				c-6.119,0-11.126-5.007-11.126-11.125v-0.002c0-6.118,5.006-11.125,11.126-11.125h25.448c0,0,15.3,0,30.066,0
				c14.766,0,24.093,17.443,61.39,17.443c57.657,0,73.226,0,130.883,0c7.984,0,14.518,6.535,14.518,14.517l0,0
				c0,7.983-6.534,14.517-14.518,14.517h-16.958c-11.569,0-21.035,9.467-21.035,21.034v0.002c0,11.567,9.465,21.035,21.035,21.035
				h28.132c56.658,0,64.661,14.807,74.585,44.257c9.923,29.45,61.46,31.824,61.46,31.824h35.235
				c17.435,0,31.699,14.265,31.699,31.699l0,0c0,17.435-14.265,31.701-31.699,31.701h-3.629c-16.77,0-30.49,13.72-30.49,30.489l0,0
				C546.534,319.979,560.255,333.699,577.024,333.699L577.024,333.699z M119.191,66.943c6.145,0,11.126-4.981,11.126-11.125
				c0-6.146-4.981-11.127-11.126-11.127c-6.145,0-11.126,4.981-11.126,11.127C108.066,61.962,113.047,66.943,119.191,66.943z"/>
			<g>
				<path fill-rule="evenodd" clip-rule="evenodd" fill="#99B6FF" d="M360.865,117.418h-35.234v122.659h116.551V135.746
					c-8.645-1.669-19.353-2.506-32.81-2.506h-28.132C371.47,133.24,363.2,126.486,360.865,117.418z"/>
				<path fill-rule="evenodd" clip-rule="evenodd" fill="#B5C8FF" d="M360.483,115.594h-37.588v122.359h116.552V135.258
					c-8.144-1.343-18.001-2.018-30.073-2.018h-28.132C370.825,133.24,362.116,125.566,360.483,115.594z"/>
				<path fill-rule="evenodd" clip-rule="evenodd" fill="#FFFFFF" d="M429.593,134.036v94.065h-96.846V125.446h32.182
					c3.865,4.748,9.75,7.794,16.312,7.794h28.132C416.944,133.24,423.639,133.507,429.593,134.036z"/>
				<rect x="183.883" y="117.418" fill-rule="evenodd" clip-rule="evenodd" fill="#93B1F9" width="116.552" height="95.031"/>
				<rect x="181.145" y="115.594" fill-rule="evenodd" clip-rule="evenodd" fill="#B5C8FF" width="116.552" height="95.03"/>
				<rect x="190.998" y="125.446" fill-rule="evenodd" clip-rule="evenodd" fill="#FFFFFF" width="96.847" height="75.326"/>
			</g>
			<path fill-rule="evenodd" clip-rule="evenodd" fill="#F2F5FC" d="M172.528,232.4c0.935-3.371,1.437-6.916,1.437-10.575l0,0
				c0-4.833-0.874-9.471-2.468-13.766l68.68-114.984h72.622L396.017,232.4H172.528z"/>
			<g>
				<g>
					<polygon fill-rule="evenodd" clip-rule="evenodd" fill="#B5C8FF" points="316.762,93.075 235.578,93.075 276.17,69.158 					
						"/>
					<path fill-rule="evenodd" clip-rule="evenodd" fill="#B5C8FF" d="M235.9,90.739h80.54c1.283,0,2.337,1.05,2.337,2.336l0,0
						c0,1.285-1.054,2.335-2.337,2.335H235.9c-1.283,0-2.337-1.05-2.337-2.335l0,0C233.563,91.79,234.618,90.739,235.9,90.739z"/>
					<rect x="274.285" y="62.135" fill-rule="evenodd" clip-rule="evenodd" fill="#B5C8FF" width="3.772" height="11.738"/>
				</g>
				<path fill-rule="evenodd" clip-rule="evenodd" fill="#FFFFFF" d="M276.17,91.257c20.943,0,37.92,1.867,37.92,4.17
					c0,2.304-16.977,4.171-37.92,4.171c-20.942,0-37.919-1.867-37.919-4.171C238.251,93.124,255.229,91.257,276.17,91.257z"/>
			</g>
			<path fill-rule="evenodd" clip-rule="evenodd" fill="#B5C8FF" d="M149.917,128.712c0-0.624,0.506-1.13,1.131-1.13
				c0.624,0,1.13,0.506,1.13,1.13v2.66h2.659c0.624,0,1.131,0.505,1.131,1.13c0,0.624-0.506,1.13-1.131,1.13h-2.659v2.66
				c0,0.624-0.506,1.13-1.13,1.13c-0.624,0-1.131-0.506-1.131-1.13v-2.66h-2.659c-0.624,0-1.131-0.506-1.131-1.13
				c0-0.626,0.506-1.13,1.131-1.13h2.659V128.712z"/>
			<path fill-rule="evenodd" clip-rule="evenodd" fill="#B5C8FF" d="M118.335,148.979L118.335,148.979L118.335,148.979z
				 M114.908,135.928c-1.194-1.193-2.842-1.932-4.663-1.932c-1.82,0-3.469,0.739-4.662,1.932c-1.193,1.193-1.931,2.841-1.931,4.662
				c0,1.821,0.738,3.47,1.931,4.663c1.193,1.193,2.842,1.931,4.662,1.931c1.821,0,3.469-0.738,4.663-1.931
				c1.193-1.193,1.931-2.842,1.931-4.663C116.838,138.769,116.101,137.121,114.908,135.928L114.908,135.928z M113.483,129.393
				c0.914,0.263,1.78,0.635,2.584,1.099c0.825,0.478,1.586,1.053,2.267,1.71c0.133,0.127,0.331,0.147,0.483,0.059l3.063-1.769
				l0.017-0.01c0.176-0.095,0.375-0.112,0.559-0.064c0.188,0.051,0.358,0.172,0.461,0.353l0.013,0.021l2.156,3.734
				c0.104,0.179,0.124,0.388,0.073,0.577c-0.05,0.188-0.172,0.357-0.352,0.461l-0.021,0.012l-3.039,1.754
				c-0.16,0.093-0.233,0.276-0.191,0.446h0c0.112,0.453,0.198,0.918,0.256,1.393c0.056,0.464,0.085,0.938,0.085,1.421
				c0,0.483-0.029,0.956-0.085,1.42c-0.058,0.477-0.145,0.942-0.256,1.393c-0.046,0.188,0.047,0.378,0.214,0.46l3.038,1.753l0,0.001
				c0.18,0.104,0.302,0.273,0.352,0.461c0.051,0.189,0.03,0.396-0.073,0.577l-2.168,3.755l-0.001-0.001
				c-0.104,0.181-0.273,0.302-0.461,0.353c-0.188,0.051-0.395,0.03-0.575-0.074l-0.022-0.011l-3.042-1.757
				c-0.159-0.091-0.354-0.063-0.481,0.059c-0.681,0.656-1.442,1.232-2.267,1.708c-0.809,0.468-1.681,0.842-2.601,1.106
				c-0.178,0.051-0.294,0.212-0.294,0.39v3.534c0,0.207-0.085,0.397-0.223,0.535c-0.138,0.138-0.327,0.223-0.535,0.223h-4.337
				c-0.208,0-0.397-0.085-0.535-0.223c-0.137-0.138-0.223-0.328-0.223-0.535v-3.535c0-0.191-0.133-0.351-0.312-0.394
				c-0.914-0.264-1.78-0.635-2.584-1.101c-0.825-0.476-1.586-1.052-2.268-1.709c-0.139-0.132-0.348-0.147-0.503-0.045l-3.043,1.757
				c-0.18,0.103-0.387,0.124-0.577,0.073c-0.188-0.05-0.357-0.171-0.461-0.353l-0.013-0.02l-2.156-3.735h0
				c-0.104-0.18-0.124-0.386-0.074-0.575c0.05-0.188,0.172-0.357,0.351-0.461l3.061-1.768c0.16-0.091,0.233-0.275,0.191-0.446l0,0
				c-0.111-0.451-0.198-0.917-0.255-1.393c-0.057-0.464-0.086-0.938-0.086-1.42c0-0.482,0.029-0.957,0.086-1.421
				c0.058-0.477,0.144-0.94,0.255-1.393c0.046-0.188-0.047-0.376-0.213-0.458l-3.039-1.754c-0.179-0.104-0.3-0.273-0.351-0.461
				c-0.051-0.189-0.03-0.396,0.074-0.575l0.012-0.022l2.156-3.734l0,0c0.104-0.18,0.273-0.301,0.461-0.353
				c0.189-0.05,0.396-0.03,0.576,0.074h-0.001l3.064,1.769c0.163,0.095,0.366,0.063,0.492-0.067
				c0.679-0.653,1.437-1.225,2.258-1.701c0.809-0.467,1.681-0.84,2.601-1.104c0.178-0.051,0.294-0.214,0.294-0.39v-3.534
				c0-0.209,0.085-0.397,0.223-0.535c0.138-0.137,0.328-0.223,0.535-0.223h4.337c0.208,0,0.397,0.086,0.535,0.223
				c0.138,0.138,0.223,0.327,0.223,0.535v3.534C113.172,129.189,113.305,129.351,113.483,129.393z"/>
			<path fill-rule="evenodd" clip-rule="evenodd" fill="#B5C8FF" d="M687.067,254.157c-1.429-1.43-3.141-2.583-5.046-3.372
				c-1.833-0.759-3.839-1.178-5.938-1.178c-2.1,0-4.104,0.419-5.937,1.178c-1.906,0.79-3.617,1.943-5.047,3.372
				c-1.43,1.428-2.583,3.14-3.372,5.045c-0.759,1.833-1.178,3.839-1.178,5.939c0,2.099,0.419,4.105,1.178,5.936
				c0.79,1.907,1.942,3.619,3.372,5.047c1.428,1.43,3.14,2.582,5.044,3.371c1.832,0.761,3.839,1.18,5.939,1.18
				c2.1,0,4.107-0.419,5.938-1.178c1.905-0.789,3.617-1.943,5.046-3.373c1.429-1.428,2.583-3.141,3.372-5.045
				c0.759-1.833,1.178-3.839,1.178-5.939s-0.419-4.105-1.178-5.939C689.65,257.297,688.496,255.585,687.067,254.157L687.067,254.157
				z M681.477,252.111c1.719,0.712,3.271,1.761,4.574,3.063c1.302,1.303,2.351,2.854,3.062,4.574
				c0.688,1.657,1.067,3.48,1.067,5.393c0,1.913-0.38,3.735-1.067,5.393c-0.712,1.72-1.761,3.271-3.062,4.573
				c-1.304,1.303-2.855,2.351-4.574,3.063c-1.658,0.687-3.48,1.066-5.394,1.066c-1.911,0-3.731-0.379-5.389-1.066
				c-1.722-0.713-3.275-1.761-4.577-3.063c-1.303-1.302-2.351-2.854-3.063-4.573c-0.688-1.657-1.066-3.479-1.066-5.393
				c0-1.913,0.379-3.735,1.066-5.393c0.712-1.72,1.76-3.271,3.063-4.574c1.302-1.302,2.855-2.351,4.573-3.063
				c1.658-0.686,3.479-1.065,5.393-1.065C677.997,251.046,679.818,251.425,681.477,252.111L681.477,252.111z M683.193,240.68
				c0.973,0.281,1.928,0.624,2.863,1.021c0.947,0.403,1.866,0.863,2.748,1.373c0.898,0.519,1.764,1.093,2.591,1.717
				c0.833,0.627,1.623,1.302,2.366,2.02c0.264,0.253,0.593,0.401,0.93,0.442c0.346,0.042,0.703-0.027,1.014-0.208
				c2.28-1.317,4.679-2.621,6.913-3.993c0.108-0.056,0.223-0.091,0.337-0.104c0.128-0.014,0.257-0.004,0.381,0.03
				c0.126,0.034,0.246,0.091,0.349,0.17c0.099,0.075,0.187,0.173,0.253,0.287c1.662,2.516,3.331,5.767,4.871,8.435
				c0.066,0.114,0.106,0.236,0.122,0.357c0.016,0.129,0.006,0.265-0.029,0.395c-0.033,0.126-0.091,0.245-0.17,0.349
				c-0.076,0.099-0.173,0.187-0.287,0.253c-2.053,1.357-4.695,2.713-6.871,3.97c-0.319,0.183-0.553,0.458-0.685,0.769
				c-0.046,0.109-0.081,0.223-0.103,0.339l-0.142,0.048l0.158,0.642c0.125,0.504,0.234,1.008,0.326,1.509
				c0.09,0.488,0.167,0.999,0.233,1.533c0.063,0.52,0.11,1.035,0.142,1.544c0.029,0.498,0.045,1.021,0.045,1.564
				c0,0.543-0.016,1.063-0.045,1.561c-0.031,0.51-0.079,1.026-0.142,1.547c-0.066,0.532-0.143,1.043-0.233,1.531
				c-0.092,0.502-0.201,1.007-0.326,1.511c-0.092,0.374-0.047,0.749,0.103,1.073c0.149,0.322,0.404,0.593,0.735,0.763l6.085,3.512
				l-0.001,0.003l0.721,0.416c0.114,0.066,0.211,0.153,0.287,0.253c0.078,0.103,0.137,0.223,0.17,0.349
				c0.035,0.132,0.045,0.266,0.029,0.393c-0.016,0.123-0.056,0.245-0.122,0.359l-4.505,7.807l-0.002-0.002l-0.364,0.631
				c-0.066,0.113-0.153,0.211-0.253,0.286c-0.103,0.078-0.223,0.136-0.349,0.17c-0.13,0.035-0.263,0.045-0.392,0.028
				c-0.121-0.015-0.242-0.055-0.356-0.121c-2.179-1.369-4.639-2.676-6.887-3.974c-0.321-0.184-0.673-0.248-1.006-0.206
				c-0.346,0.041-0.674,0.192-0.93,0.439l-0.004,0.003c-0.744,0.718-1.535,1.393-2.367,2.021c-0.828,0.623-1.692,1.196-2.588,1.714
				c-0.889,0.515-1.813,0.977-2.768,1.382c-0.938,0.399-1.912,0.744-2.914,1.032c-0.354,0.101-0.647,0.311-0.853,0.585
				c-0.209,0.276-0.329,0.621-0.329,0.981l-0.002,7.942c0,0.133-0.026,0.26-0.074,0.372c-0.049,0.118-0.124,0.229-0.217,0.32
				c-0.09,0.093-0.2,0.168-0.32,0.218c-0.113,0.048-0.24,0.072-0.373,0.072h-9.744c-0.134,0-0.261-0.024-0.374-0.072
				c-0.12-0.051-0.231-0.125-0.321-0.216c-0.092-0.094-0.167-0.204-0.215-0.322c-0.048-0.112-0.074-0.239-0.074-0.372v-7.942
				c0-0.378-0.133-0.727-0.353-1.008c-0.224-0.285-0.54-0.493-0.9-0.578c-0.972-0.279-1.927-0.622-2.862-1.02
				c-0.948-0.404-1.867-0.863-2.75-1.373c-0.896-0.52-1.762-1.093-2.589-1.717c-0.832-0.627-1.624-1.302-2.367-2.02
				c-0.275-0.266-0.623-0.414-0.979-0.446c-0.362-0.033-0.732,0.055-1.045,0.261l-6.799,3.925c-0.112,0.065-0.234,0.105-0.359,0.12
				c-0.128,0.017-0.262,0.007-0.392-0.028c-0.127-0.034-0.246-0.092-0.35-0.17c-0.099-0.075-0.185-0.173-0.252-0.286
				c-1.615-2.817-3.255-5.621-4.872-8.436c-0.065-0.114-0.106-0.236-0.121-0.359c-0.017-0.127-0.006-0.262,0.029-0.392
				c0.033-0.127,0.091-0.247,0.169-0.35c0.074-0.102,0.17-0.186,0.281-0.252l6.878-3.97c0.319-0.184,0.552-0.456,0.686-0.769
				c0.036-0.085,0.064-0.173,0.086-0.262l0.18-0.036l-0.181-0.73c-0.125-0.504-0.234-1.008-0.326-1.509
				c-0.089-0.489-0.167-1.001-0.231-1.533c-0.064-0.52-0.111-1.037-0.142-1.547c-0.03-0.498-0.046-1.018-0.046-1.561
				c0-0.543,0.016-1.063,0.046-1.56c0.03-0.51,0.078-1.025,0.141-1.546c0.065-0.538,0.144-1.051,0.232-1.536
				c0.092-0.5,0.201-1.004,0.326-1.507c0.093-0.377,0.047-0.753-0.104-1.075c-0.15-0.321-0.405-0.592-0.731-0.761l-6.811-3.931
				c-0.112-0.064-0.207-0.15-0.284-0.252c-0.077-0.1-0.135-0.22-0.169-0.35c-0.035-0.13-0.046-0.264-0.029-0.392
				c0.016-0.123,0.056-0.246,0.121-0.359c1.663-2.473,3.329-5.776,4.872-8.436c0.066-0.114,0.153-0.211,0.252-0.287
				c0.104-0.079,0.223-0.136,0.35-0.17c0.13-0.035,0.264-0.046,0.391-0.03c0.12,0.015,0.243,0.056,0.36,0.123l6.881,3.971
				c0.323,0.19,0.687,0.253,1.032,0.205c0.345-0.046,0.675-0.205,0.93-0.458c0.747-0.719,1.535-1.391,2.354-2.008
				c0.819-0.617,1.681-1.188,2.583-1.708c0.888-0.513,1.812-0.976,2.767-1.382c0.938-0.398,1.911-0.744,2.913-1.032
				c0.353-0.1,0.646-0.311,0.853-0.584c0.209-0.276,0.328-0.621,0.328-0.981l0.003-7.941c0-0.134,0.026-0.26,0.074-0.373
				c0.048-0.118,0.123-0.227,0.216-0.32c0.09-0.094,0.2-0.168,0.32-0.218c0.113-0.047,0.24-0.074,0.374-0.074h9.744
				c0.133,0,0.26,0.026,0.373,0.074c0.12,0.05,0.23,0.124,0.322,0.215c0.178,0.182,0.289,0.427,0.289,0.695v7.941
				c0,0.38,0.131,0.73,0.35,1.008C682.518,240.388,682.833,240.596,683.193,240.68L683.193,240.68z M686.619,240.38
				c1,0.426,1.972,0.913,2.906,1.453c0.952,0.55,1.867,1.157,2.736,1.812c0.872,0.658,1.706,1.371,2.495,2.132
				c0.03,0.029,0.067,0.045,0.109,0.05c0.041,0.005,0.084-0.003,0.119-0.023c2.313-1.335,4.631-2.666,6.94-4.009
				c0.274-0.149,0.57-0.239,0.869-0.272c0.308-0.035,0.617-0.011,0.912,0.067c0.304,0.082,0.595,0.223,0.85,0.417
				c0.245,0.188,0.46,0.427,0.622,0.709c1.677,2.716,3.269,5.658,4.872,8.436c0.164,0.281,0.263,0.588,0.302,0.896
				c0.041,0.321,0.019,0.643-0.063,0.945c-0.08,0.304-0.222,0.593-0.417,0.849c-0.188,0.247-0.425,0.459-0.709,0.622
				c-2.212,1.368-4.613,2.664-6.876,3.971c-0.036,0.022-0.063,0.054-0.079,0.091c-0.017,0.038-0.02,0.081-0.01,0.121l0.158,0.642
				l-0.01,0.002c0.069,0.313,0.133,0.629,0.192,0.95c0.101,0.551,0.185,1.093,0.249,1.623c0.063,0.526,0.112,1.07,0.146,1.63
				c0.034,0.562,0.052,1.111,0.052,1.646c0,0.535-0.017,1.084-0.052,1.645c-0.034,0.56-0.083,1.104-0.146,1.632
				c-0.065,0.53-0.148,1.071-0.25,1.62c-0.1,0.548-0.215,1.08-0.343,1.596c-0.01,0.044-0.005,0.088,0.014,0.125
				c0.02,0.043,0.049,0.075,0.085,0.093c2.527,1.351,5.092,2.937,7.591,4.381l-0.089,0.111l0.076,0.096
				c0.195,0.255,0.337,0.545,0.417,0.849c0.082,0.303,0.105,0.624,0.063,0.945c-0.039,0.309-0.138,0.614-0.303,0.896l-5.234,9.067
				l-0.098-0.059c-0.052,0.048-0.105,0.094-0.161,0.136c-0.255,0.194-0.546,0.336-0.85,0.418c-0.302,0.08-0.623,0.104-0.942,0.063
				c-0.302-0.038-0.598-0.133-0.873-0.287c-2.291-1.216-4.648-2.684-6.909-3.99c-0.033-0.019-0.074-0.024-0.115-0.02
				c-0.043,0.005-0.083,0.023-0.112,0.052c-0.789,0.761-1.623,1.473-2.495,2.13c-0.869,0.654-1.782,1.261-2.734,1.811
				c-0.94,0.544-1.918,1.031-2.926,1.461c-1.001,0.425-2.031,0.791-3.081,1.093c-0.043,0.011-0.078,0.036-0.101,0.067
				c-0.026,0.035-0.042,0.076-0.039,0.116v7.942c0,0.324-0.065,0.637-0.186,0.924c-0.125,0.298-0.306,0.565-0.529,0.786
				c-0.223,0.223-0.49,0.403-0.784,0.527c-0.287,0.118-0.6,0.185-0.924,0.185h-9.744c-0.324,0-0.638-0.066-0.925-0.185
				c-0.295-0.124-0.561-0.305-0.787-0.527c-0.221-0.221-0.401-0.488-0.525-0.786c-0.12-0.287-0.187-0.6-0.187-0.924v-7.942
				c0-0.048-0.014-0.09-0.037-0.12c-0.025-0.031-0.063-0.057-0.109-0.066l-0.03-0.011c-1.057-0.306-2.08-0.669-3.061-1.087
				c-1.002-0.427-1.973-0.913-2.907-1.453c-0.953-0.55-1.867-1.156-2.736-1.812c-0.872-0.658-1.706-1.371-2.496-2.132
				c-0.033-0.031-0.073-0.051-0.113-0.053c-0.042-0.004-0.086,0.006-0.123,0.031l-6.877,3.969c-0.282,0.162-0.586,0.263-0.893,0.301
				c-0.32,0.041-0.642,0.018-0.944-0.063c-0.304-0.082-0.594-0.222-0.849-0.418c-0.24-0.183-0.45-0.414-0.611-0.688
				c-1.807-2.905-3.514-6.087-5.236-9.07l0.092-0.055c-0.018-0.076-0.031-0.152-0.04-0.23c-0.041-0.319-0.018-0.64,0.063-0.942
				c0.081-0.304,0.223-0.594,0.418-0.849c0.188-0.248,0.425-0.461,0.707-0.623l6.878-3.972c0.035-0.02,0.063-0.052,0.077-0.089
				c0.018-0.038,0.021-0.082,0.012-0.123l-0.179-0.729l0.011-0.001c-0.063-0.283-0.12-0.571-0.174-0.862
				c-0.101-0.551-0.185-1.092-0.248-1.623c-0.065-0.528-0.114-1.072-0.148-1.632c-0.033-0.561-0.051-1.109-0.051-1.645
				c0-0.535,0.018-1.084,0.051-1.645c0.033-0.56,0.083-1.105,0.148-1.636c0.063-0.526,0.147-1.066,0.248-1.621
				c0.102-0.545,0.216-1.077,0.343-1.592c0.01-0.041,0.005-0.087-0.013-0.128c-0.018-0.037-0.049-0.07-0.089-0.089l-6.868-3.966
				c-0.284-0.164-0.521-0.378-0.706-0.623c-0.195-0.258-0.337-0.548-0.417-0.848c-0.081-0.302-0.103-0.623-0.063-0.942
				c0.038-0.301,0.134-0.599,0.289-0.877c1.638-3.032,3.515-6.089,5.247-9.089l0.098,0.059c0.052-0.048,0.106-0.094,0.162-0.137
				c0.255-0.195,0.545-0.336,0.849-0.417c0.303-0.08,0.624-0.104,0.943-0.063c0.31,0.039,0.614,0.138,0.893,0.297l0.509,0.292
				l-0.001,0.005l6.379,3.683c0.038,0.021,0.082,0.029,0.122,0.024c0.041-0.005,0.08-0.025,0.108-0.054l0.018-0.018
				c0.78-0.751,1.613-1.46,2.491-2.121c0.871-0.657,1.78-1.261,2.721-1.803c0.94-0.544,1.918-1.033,2.925-1.46
				c1.001-0.425,2.03-0.792,3.082-1.093c0.041-0.013,0.076-0.037,0.101-0.068c0.025-0.035,0.041-0.077,0.038-0.116v-7.941
				c0-0.324,0.066-0.638,0.187-0.924c0.124-0.298,0.305-0.566,0.529-0.787c0.223-0.223,0.488-0.404,0.783-0.526
				c0.287-0.12,0.601-0.185,0.925-0.185h9.744c0.324,0,0.637,0.065,0.924,0.185c0.294,0.122,0.562,0.304,0.787,0.526
				c0.438,0.439,0.712,1.044,0.712,1.71v7.941c0,0.045,0.016,0.087,0.039,0.122c0.025,0.03,0.062,0.055,0.106,0.065l0.031,0.011
				C684.613,239.599,685.637,239.962,686.619,240.38z"/>
			<path fill-rule="evenodd" clip-rule="evenodd" fill="#B5C8FF" d="M617.7,310.311L617.7,310.311L617.7,310.311z M614.272,297.261
				c-1.193-1.192-2.841-1.93-4.662-1.93c-1.82,0-3.469,0.737-4.662,1.93c-1.192,1.193-1.931,2.842-1.931,4.662
				c0,1.82,0.738,3.47,1.931,4.663c1.193,1.192,2.841,1.931,4.662,1.931c1.821,0,3.469-0.738,4.662-1.931
				c1.193-1.193,1.931-2.843,1.931-4.663C616.203,300.103,615.466,298.454,614.272,297.261L614.272,297.261z M612.849,290.727
				c0.913,0.264,1.779,0.635,2.583,1.099c0.825,0.479,1.587,1.054,2.269,1.71c0.133,0.129,0.33,0.147,0.482,0.059l3.063-1.769
				l0.017-0.011c0.177-0.095,0.376-0.112,0.559-0.064c0.189,0.051,0.358,0.172,0.462,0.352l0.013,0.022l2.155,3.733
				c0.104,0.18,0.125,0.388,0.074,0.576c-0.051,0.189-0.172,0.357-0.354,0.462l-0.02,0.012l-3.038,1.755
				c-0.16,0.093-0.234,0.276-0.191,0.446h-0.002c0.113,0.452,0.199,0.918,0.257,1.395c0.057,0.462,0.086,0.938,0.086,1.419
				c0,0.482-0.029,0.956-0.086,1.42c-0.059,0.477-0.143,0.942-0.257,1.393c-0.046,0.189,0.048,0.378,0.214,0.46l3.039,1.753
				l-0.002,0.001c0.182,0.104,0.303,0.273,0.354,0.462c0.051,0.188,0.029,0.396-0.074,0.576l-2.168,3.755l0,0
				c-0.104,0.181-0.273,0.302-0.462,0.352c-0.188,0.052-0.395,0.03-0.575-0.073l-0.023-0.012l-3.042-1.757
				c-0.16-0.091-0.355-0.063-0.481,0.059c-0.682,0.656-1.443,1.232-2.268,1.708c-0.81,0.468-1.682,0.842-2.602,1.105
				c-0.178,0.052-0.294,0.214-0.294,0.391v3.533c0,0.208-0.086,0.397-0.223,0.535c-0.139,0.138-0.327,0.223-0.536,0.223h-4.337
				c-0.207,0-0.398-0.085-0.535-0.223c-0.137-0.138-0.223-0.327-0.223-0.535v-3.533c0-0.192-0.132-0.353-0.311-0.396
				c-0.914-0.264-1.781-0.635-2.585-1.101c-0.824-0.476-1.586-1.052-2.267-1.708c-0.139-0.134-0.35-0.148-0.503-0.046l-3.044,1.757
				c-0.179,0.104-0.386,0.124-0.575,0.072c-0.189-0.05-0.357-0.171-0.461-0.352l-0.014-0.021l-2.156-3.735h0.001
				c-0.103-0.18-0.124-0.387-0.074-0.575c0.051-0.189,0.172-0.357,0.352-0.462l3.06-1.767c0.16-0.093,0.232-0.276,0.191-0.447l0,0
				c-0.111-0.451-0.197-0.917-0.255-1.393c-0.058-0.464-0.087-0.938-0.087-1.42c0-0.482,0.029-0.957,0.087-1.421
				c0.058-0.475,0.144-0.941,0.255-1.393c0.046-0.188-0.046-0.376-0.214-0.459l-3.038-1.754c-0.18-0.105-0.301-0.273-0.352-0.462
				c-0.05-0.189-0.029-0.395,0.074-0.575l0.012-0.022l2.156-3.733l0,0c0.104-0.181,0.273-0.302,0.462-0.352
				c0.189-0.051,0.395-0.03,0.575,0.073v0.001l3.063,1.769c0.164,0.095,0.365,0.063,0.492-0.067
				c0.679-0.652,1.437-1.226,2.259-1.701c0.809-0.467,1.681-0.84,2.6-1.103c0.179-0.052,0.295-0.213,0.295-0.391v-3.533
				c0-0.208,0.086-0.398,0.223-0.535c0.138-0.138,0.328-0.223,0.535-0.223h4.337c0.209,0,0.398,0.085,0.536,0.223
				c0.137,0.138,0.223,0.327,0.223,0.535v3.533C612.537,290.522,612.67,290.685,612.849,290.727z"/>
			<path fill-rule="evenodd" clip-rule="evenodd" fill="#B5C8FF" d="M222.132,68.788c0-0.625,0.506-1.13,1.131-1.13
				s1.131,0.505,1.131,1.13v2.659h2.659c0.625,0,1.131,0.506,1.131,1.131c0,0.624-0.506,1.13-1.131,1.13h-2.659v2.66
				c0,0.624-0.506,1.13-1.131,1.13s-1.131-0.506-1.131-1.13v-2.66h-2.659c-0.624,0-1.131-0.506-1.131-1.13
				c0-0.625,0.506-1.131,1.131-1.131h2.659V68.788z"/>
			<path fill-rule="evenodd" clip-rule="evenodd" fill="#B5C8FF" d="M351.199,41.13c0-0.624,0.506-1.13,1.13-1.13
				c0.625,0,1.131,0.506,1.131,1.13v2.66h2.659c0.624,0,1.131,0.506,1.131,1.13c0,0.625-0.507,1.131-1.131,1.131h-2.659v2.659
				c0,0.625-0.507,1.131-1.131,1.131c-0.624,0-1.13-0.506-1.13-1.131v-2.659h-2.66c-0.624,0-1.13-0.506-1.13-1.131
				c0-0.624,0.506-1.13,1.13-1.13h2.66V41.13z"/>
			<path fill-rule="evenodd" clip-rule="evenodd" fill="#B5C8FF" d="M521.752,180.953c0-0.624,0.506-1.13,1.131-1.13
				c0.624,0,1.13,0.507,1.13,1.13v2.66h2.66c0.624,0,1.13,0.506,1.13,1.13c0,0.625-0.506,1.132-1.13,1.132h-2.66v2.658
				c0,0.626-0.506,1.132-1.13,1.132c-0.625,0-1.131-0.506-1.131-1.132v-2.658h-2.659c-0.625,0-1.131-0.506-1.131-1.132
				c0-0.624,0.506-1.13,1.131-1.13h2.659V180.953z"/>
			<path fill-rule="evenodd" clip-rule="evenodd" fill="#B5C8FF" d="M693.841,320.775c0-0.624,0.506-1.131,1.131-1.131
				c0.624,0,1.131,0.507,1.131,1.131v2.659h2.658c0.625,0,1.132,0.507,1.132,1.131c0,0.624-0.507,1.13-1.132,1.13h-2.658v2.66
				c0,0.624-0.507,1.13-1.131,1.13c-0.625,0-1.131-0.506-1.131-1.13v-2.66h-2.659c-0.625,0-1.131-0.506-1.131-1.13
				c0-0.624,0.506-1.131,1.131-1.131h2.659V320.775z"/>
			<path fill-rule="evenodd" clip-rule="evenodd" fill="#B5C8FF" d="M632.38,406.82c0-0.624,0.507-1.131,1.131-1.131
				c0.625,0,1.131,0.507,1.131,1.131v2.658h2.659c0.625,0,1.131,0.506,1.131,1.132c0,0.623-0.506,1.13-1.131,1.13h-2.659v2.66
				c0,0.623-0.506,1.13-1.131,1.13c-0.624,0-1.131-0.507-1.131-1.13v-2.66h-2.659c-0.624,0-1.131-0.507-1.131-1.13
				c0-0.626,0.507-1.132,1.131-1.132h2.659V406.82z"/>
			<path fill-rule="evenodd" clip-rule="evenodd" fill="#B5C8FF" d="M93.066,394.528c0-0.625,0.506-1.132,1.131-1.132
				c0.624,0,1.13,0.507,1.13,1.132v2.658h2.659c0.625,0,1.131,0.507,1.131,1.131c0,0.625-0.506,1.132-1.131,1.132h-2.659v2.658
				c0,0.625-0.506,1.132-1.13,1.132c-0.624,0-1.131-0.507-1.131-1.132v-2.658h-2.659c-0.624,0-1.131-0.507-1.131-1.132
				c0-0.624,0.506-1.131,1.131-1.131h2.659V394.528z"/>
			<path fill-rule="evenodd" clip-rule="evenodd" fill="#B5C8FF" d="M62.335,245.487c0-0.626,0.506-1.13,1.131-1.13
				c0.624,0,1.131,0.505,1.131,1.13v2.658h2.659c0.625,0,1.131,0.506,1.131,1.132c0,0.624-0.506,1.13-1.131,1.13h-2.659v2.659
				c0,0.624-0.506,1.131-1.131,1.131c-0.625,0-1.131-0.507-1.131-1.131v-2.659h-2.659c-0.625,0-1.131-0.507-1.131-1.13
				c0-0.626,0.506-1.132,1.131-1.132h2.659V245.487z"/>
			<path fill-rule="evenodd" clip-rule="evenodd" fill="#B5C8FF" d="M92.815,83.428c0-0.626,0.506-1.132,1.131-1.132
				c0.625,0,1.131,0.506,1.131,1.132v2.658h2.659c0.625,0,1.131,0.506,1.131,1.132c0,0.624-0.506,1.13-1.131,1.13h-2.659v2.66
				c0,0.623-0.506,1.13-1.131,1.13c-0.624,0-1.131-0.507-1.131-1.13v-2.66h-2.659c-0.624,0-1.131-0.506-1.131-1.13
				c0-0.626,0.506-1.132,1.131-1.132h2.659V83.428z"/>
			<path fill-rule="evenodd" clip-rule="evenodd" fill="#B5C8FF" d="M420.757,111.085c0-0.624,0.506-1.13,1.131-1.13
				c0.624,0,1.131,0.506,1.131,1.13v2.659h2.658c0.625,0,1.132,0.507,1.132,1.13c0,0.626-0.507,1.13-1.132,1.13h-2.658v2.66
				c0,0.625-0.507,1.13-1.131,1.13c-0.625,0-1.131-0.505-1.131-1.13v-2.66h-2.659c-0.625,0-1.131-0.505-1.131-1.13
				c0-0.623,0.506-1.13,1.131-1.13h2.659V111.085z"/>
		</g>
		<g>
			<polygon fill-rule="evenodd" clip-rule="evenodd" fill="#B5C8FF" points="327.339,117.418 325.631,117.418 325.631,232.4 
				396.017,232.4 			"/>
			<polygon fill-rule="evenodd" clip-rule="evenodd" fill="#D9E3FC" points="326.249,115.594 322.895,115.594 322.895,232.4 
				396.017,232.4 			"/>
			<polygon fill-rule="evenodd" clip-rule="evenodd" fill="#FFFFFF" points="393.448,228.101 332.747,228.101 332.747,126.472 			
				"/>
			<polygon fill-rule="evenodd" clip-rule="evenodd" fill="#9FBAFF" points="300.435,117.418 225.637,117.418 183.883,187.322 
				183.883,212.449 300.435,212.449 			"/>
			<polygon fill-rule="evenodd" clip-rule="evenodd" fill="#9FBAFF" points="297.697,115.594 226.727,115.594 181.145,191.905 
				181.145,210.624 297.697,210.624 			"/>
			<polygon fill-rule="evenodd" clip-rule="evenodd" fill="#FFFFFF" points="287.845,125.446 287.845,200.772 190.998,200.772 
				190.998,175.41 220.842,125.446 			"/>
		</g>
		<g>
			<path fill-rule="evenodd" clip-rule="evenodd" fill="#2C6DFF" d="M299.134,107.258h42.03c3.053,0,5.551,2.497,5.551,5.551v22.89
				v1.693v14.571c0,0.256-0.146,0.475-0.383,0.573c-0.237,0.097-0.495,0.046-0.675-0.135l-9.459-9.458h-37.064
				c-3.053,0-5.55-2.497-5.55-5.551v-24.583C293.583,109.755,296.081,107.258,299.134,107.258z"/>
			<g>
				<path fill-rule="evenodd" clip-rule="evenodd" fill="#FFFFFF" d="M307.765,128.157c1.684,0,3.057-1.373,3.057-3.056
					c0-1.684-1.373-3.057-3.057-3.057c-1.684,0-3.057,1.373-3.057,3.057C304.708,126.784,306.081,128.157,307.765,128.157z"/>
				<path fill-rule="evenodd" clip-rule="evenodd" fill="#FFFFFF" d="M320.149,128.157c1.684,0,3.057-1.373,3.057-3.056
					c0-1.684-1.373-3.057-3.057-3.057c-1.684,0-3.057,1.373-3.057,3.057C317.092,126.784,318.465,128.157,320.149,128.157z"/>
				<path fill-rule="evenodd" clip-rule="evenodd" fill="#FFFFFF" d="M332.533,128.157c1.684,0,3.057-1.373,3.057-3.056
					c0-1.684-1.373-3.057-3.057-3.057s-3.057,1.373-3.057,3.057C329.477,126.784,330.85,128.157,332.533,128.157z"/>
			</g>
		</g>
		<g>
			<path fill-rule="evenodd" clip-rule="evenodd" fill="#0B51FF" d="M374.42,217.775c0,0,1.59,3.848,0.741,9.02
				c-0.48,2.924-17.92,50.462-19.068,53.543c-1.147,3.081-6.347,8.36-11.689,9.27c-2.169,0.369-17.507,3.284-24.248,4.33
				c-5.971,0.927-7.895-4.895-12.186-8.311c6.539-1.624,31.944-11.681,33.115-12.038c1.397-0.426,2.529-1.079,3.234-3.607
				c0.704-2.528,6.339-27.341,6.339-27.341s3.888-14.542,7.684-17.063C361.788,223.288,367.103,218.009,374.42,217.775z"/>
			<path fill-rule="evenodd" clip-rule="evenodd" fill="#1A1A18" d="M357.057,315.497l-2.423,21.29c0,0,4.913,66.883,6.157,78.501
				c0.716,6.681,2.118,24.721,3.18,38.848h22.989l0.923-131.248L357.057,315.497z"/>
			<path fill-rule="evenodd" clip-rule="evenodd" fill="#302D28" d="M371.476,333.962l-1.197,7.525l4.05,112.648h26.301
				c2.012-18.854,5.054-46.668,6.634-57.727c2.489-17.427,3.342-41.647,3.331-47.378c-0.012-5.733-6.651-14.239-8.934-14.861
				C399.379,333.547,371.476,333.962,371.476,333.962z"/>
			<path fill-rule="evenodd" clip-rule="evenodd" fill="#EBF1FF" d="M384.443,211.403l-13.071,9.335c0,0-9.324,36.507-9.36,38.165
				c-0.037,1.659-3.606,21.792-3.606,21.792s13.07,5.188,14.938,0.207c1.867-4.979,22.82-40.663,23.858-46.264
				c1.037-5.602-1.453-18.879-2.697-20.332C393.26,212.855,384.443,211.403,384.443,211.403z"/>
			<polygon fill-rule="evenodd" clip-rule="evenodd" fill="#E9695B" points="379.665,217.165 378.98,213.139 380.043,210.735 
				381.76,203.474 406.239,188.563 396.117,214.261 			"/>
			<path fill-rule="evenodd" clip-rule="evenodd" fill="#FFFFFF" d="M382.076,217.165c0,0,1.927,1.583,2.39,2.076
				c0.463,0.493,5.267,10.71,5.935,11.644l11.305-12.655c0,0-0.694-7.624-0.874-7.961c-0.18-0.338-2.565-2.286-2.565-2.286
				C397.409,211.434,388.293,213.401,382.076,217.165z"/>
			<path fill-rule="evenodd" clip-rule="evenodd" fill="#1759FF" d="M374.744,217.169c-5.584,1.552-15.967,7.518-18.627,13.499
				c-6.098,13.709,0.221,28.953,0.221,56.309c0,3.526-7.532,54.717-7.636,55.442c-0.104,0.727,0.311,1.557,1.349,1.557
				c1.037,0,17.647-29.76,18.581-32.25c0.934-2.489-0.936-44.069-0.936-44.069l1.754-41.833L374.744,217.169z"/>
			<path fill-rule="evenodd" clip-rule="evenodd" fill="#4F75D3" d="M405.852,222.495c0,0,11.395,3.85,12.017,4.888
				c0.623,1.038-10.866,73.648-11.073,76.345c-0.207,2.697,8.715,42.427,9.026,43.463c0,0,0.051,0.415-0.26,1.038
				c-0.31,0.623-1.037,0.985-1.4,1.245c-0.363,0.259-34.176-6.815-37.495-8.891c-3.319-2.074-10.477-34.335-10.477-38.691
				c0-4.357,1.549-19.207,1.549-19.207l21.376-39.466C389.116,243.22,395.607,223.596,405.852,222.495z"/>
			<path fill-rule="evenodd" clip-rule="evenodd" fill="#B5C8FF" d="M376.174,215.324c-4.414,3.017-10.968,9.943-15.914,14.7
				c1.552,0.412,3.917,1.128,5.1,2.311c0.417,0.417-4.96,1.994-5.514,2.119c-0.471,0.105,8.233,50.481,8.233,50.481
				s2.526-55.888,3.866-59.214c1.339-3.325,4.943-8.584,4.943-8.584L376.174,215.324z"/>
			<path fill-rule="evenodd" clip-rule="evenodd" fill="#B5C8FF" d="M401.787,217.148c-11.625,15.178-29.781,49.229-34.623,66.784
				l34.103-39.669l-9.774-5.367l12.17,0.565c0.727,0.034,2.872-16.176,2.977-16.695
				C406.743,222.248,401.787,217.148,401.787,217.148z"/>
			<path fill-rule="evenodd" clip-rule="evenodd" fill="#FFFFFF" d="M380.56,209.007c0,0-2.308,2.66-2.877,3.022
				c-0.568,0.363-5.329,12.759-5.739,13.692c-0.41,0.934,7.87-7.78,8.336-7.986c0.466-0.208,1.225,0.126,1.225,0.126l-0.144-0.6
				L380.56,209.007z"/>
			<path fill-rule="evenodd" clip-rule="evenodd" fill="#E9695B" d="M370.933,173.4c3.308,0.339,5.814,3.472,5.596,6.999
				c-0.217,3.528-3.074,6.113-6.382,5.774c-3.307-0.337-5.812-3.472-5.595-6.999C364.768,175.648,367.625,173.063,370.933,173.4z"/>
			<path fill-rule="evenodd" clip-rule="evenodd" fill="#1A1A18" d="M367.682,165.995c-2.429,9.535,1.268,16.298,3.38,20.29
				c2.113,3.991,3.697-20.512,3.697-20.512L367.682,165.995z"/>
			<path fill-rule="evenodd" clip-rule="evenodd" fill="#E9695B" d="M411.713,176.061c3.213,0.339,4.838,3.473,3.631,7
				c-1.208,3.527-4.791,6.113-8.004,5.774c-3.212-0.339-4.838-3.473-3.63-7C404.917,178.308,408.501,175.722,411.713,176.061z"/>
			<path fill-rule="evenodd" clip-rule="evenodd" fill="#F5AC83" d="M392.064,143.058v0.001
				c10.754,3.762,21.17,12.102,19.166,23.976l-3.418,20.267c-2.156,12.779-13.772,21.41-26.066,20.354
				c-11.298-0.968-13.505-12.903-12.765-24.936l1.224-19.882C370.945,150.804,380.782,141.905,392.064,143.058z"/>
			<path fill-rule="evenodd" clip-rule="evenodd" fill="#EE9073" d="M400.324,145.835l0.043,0.025
				c6.901,4.171,11.408,12.338,10.865,21.173l-3.419,19.884c-2.723,15.831-18.572,24.681-28.585,19.382
				c5.93,1.346,10.489,0.438,13.996-1.282c8.919-4.37,11.036-16.084,11.574-24.822c1.105-17.976-16.111-5.741-34.994-9.057
				c-0.664-0.116,0.896-6.03,0.267-6.126l0.134-2.177c0.121-1.963,0.485-3.841,1.057-5.607c8.436-4.608,20.091-10.512,25.441-11.118
				c1.597-0.18,2.697-0.302,3.44-0.384l0.126,0.075C400.156,145.828,400.143,145.841,400.324,145.835z"/>
			<path fill-rule="evenodd" clip-rule="evenodd" fill="#362A25" d="M404.334,167.681c0,0-0.315,6.165-0.52,10.152
				c-0.203,3.985-0.225,4.9,1.254,6.541c0,0,1.088,5.67,2.771,6.789c0,0,0.201-10.097,2.076-14.264l0.199-16.655
				c-1.261,2.314-3.122,4.22-5.854,5.153C404.345,166.115,404.373,166.873,404.334,167.681z"/>
			<path fill-rule="evenodd" clip-rule="evenodd" fill="#362A25" d="M369.657,171.736c0,0-4.467-4.029-5.688-8.386
				c-1.026-3.665-4.195-21.642,0.468-19.768c10.465,4.206,43.859-14.35,45.841,8.897c0,0,1.521-1.531,2.744-1.008
				c1.225,0.521-0.618,3.26-0.618,3.26s4.086,3.376,4.611,5.911c0.365,1.753-2.171,9.294-4.571,14.745
				c-1.069,2.426-4.932,14.076-4.842,15.088l-1.326-22.869l-6.78-10.442l-20.204-2.2l-9.206,9.781L369.657,171.736z"/>
			<path fill-rule="evenodd" clip-rule="evenodd" fill="#362A25" d="M408.551,173.104c0,0-5.692-1.812-5.468-7.476
				c-1.93,3.007-6.541,3.225-3.921-1.478c0,0-12.991,9.042-29.914,4.93c0,0-3.038-16.67,0.279-18.184
				c3.318-1.512,26.565,1.156,28.973,2.327c2.408,1.173,15.024,8.812,15.024,8.812L408.551,173.104L408.551,173.104z
				 M365.522,141.63c-0.131-0.135-0.131-0.358-0.002-0.494c0.129-0.136,0.34-0.136,0.47-0.001c0.014,0.014,4.836,5.234,13.924,3.775
				c0.182-0.029,0.352,0.103,0.379,0.292c0.027,0.19-0.097,0.369-0.278,0.398C370.59,147.113,365.537,141.645,365.522,141.63
				L365.522,141.63z M409.817,154.724c0.007-0.02,2.546-7.156-2.796-15.446c-0.103-0.159-0.31-0.2-0.462-0.093
				c-0.151,0.108-0.191,0.325-0.089,0.484c5.151,7.993,2.726,14.805,2.72,14.824c-0.061,0.182,0.029,0.381,0.203,0.445
				C409.566,155.002,409.757,154.905,409.817,154.724z"/>
			<path fill-rule="evenodd" clip-rule="evenodd" fill="#768FCC" d="M414.677,225.41c0,0,3.765,1.779,6.615,6.178
				c1.61,2.487,20.673,49.398,21.895,52.45c1.223,3.053,0.925,10.456-2.417,14.72c-1.358,1.732-10.748,14.206-15.034,19.513
				c-3.796,4.7-9.134,1.686-14.608,2.043c3.747-5.599,15.786-30.127,16.413-31.18c0.748-1.254,1.146-2.499-0.032-4.845
				c-1.18-2.344-13.696-24.498-13.696-24.498S406.636,233.2,414.677,225.41z"/>
			<path fill-rule="evenodd" clip-rule="evenodd" fill="#F5AC83" d="M313.525,284.474c-1.677-0.208-2.998-0.845-3.885-1.438
				c-1.281-0.858-3.125-2.764-6.492-3.832c-3.368-1.069-3.064,0.471-1.544,1.861c1.52,1.39,3.156,3.601,3.156,3.601
				s-6.472,1.899-9.211,2.44c-2.739,0.54-3.752,2.386-2.352,3.176c0.924,0.522,3.405-0.123,3.718-0.028
				c0.096,0.028-2.064,0.735-2.111,0.957c-0.138,0.65-0.14,1.317,0.919,1.73c1.06,0.412,2.668-0.283,2.668-0.283
				s-1.207,0.611-1.643,1.343c-0.249,0.418-0.036,0.988,0.269,1.219c0.837,0.635,4.088-0.025,4.088-0.025s-1.17,0.567-1.529,1.228
				c-0.308,0.565,0.152,1.232,0.515,1.304c0.481,0.095,2.464-0.239,4.72-0.708c2.555-0.53,6.633-1.605,8.995-2.858
				c1.719-0.912,2.788-1.628,3.895-1.699C318.195,292.427,319.417,285.202,313.525,284.474z"/>
			<path fill-rule="evenodd" clip-rule="evenodd" fill="#EE9073" d="M312.75,284.343c2.761,2.929,3.042,4.646,3.17,6.099
				c0.045,0.518-0.504,1.195-1.445,1.914c-2.025,1.547-5.865,3.285-9.503,4.039c-1.576,0.326-2.929,0.792-4.025,1.303
				c0.894-0.1,2.314-0.358,3.861-0.68c2.555-0.53,6.633-1.605,8.995-2.858c0.708-0.375,1.305-0.718,1.841-0.995
				c0.765-0.398,1.403-0.662,2.054-0.704c0.496-0.033,1.718-7.258-4.174-7.986C313.257,284.44,312.999,284.396,312.75,284.343z"/>
		</g>
		<g>
			<path fill-rule="evenodd" clip-rule="evenodd" fill="#B5C8FF" d="M437.387,333.227c-0.235-3.528-3.286-6.198-6.814-5.963
				c-3.529,0.235-6.198,3.287-5.963,6.814c0.925,13.555,2.404,28.618,4.584,45.34h-116.25c2.301-16.624,4.134-31.605,5.583-45.088
				c0.374-3.516-2.173-6.668-5.688-7.041c-3.515-0.374-6.667,2.173-7.041,5.688c-2.86,26.628-7.227,59.096-13.734,98.539
				c-1.205,7.301-2.482,14.839-3.837,22.62h12.985c1.223-7.059,2.381-13.912,3.479-20.565c2.43-14.724,4.562-28.479,6.431-41.324
				h119.835c1.862,12.884,4.118,26.681,6.826,41.449c1.214,6.617,2.52,13.428,3.92,20.44h13.042
				c-1.578-7.83-3.037-15.409-4.383-22.745c-3.031-16.526-5.487-31.824-7.451-45.978c-0.021-0.316-0.064-0.625-0.128-0.927
				C440.15,365.371,438.42,348.354,437.387,333.227z"/>
			<g>
				<path fill-rule="evenodd" clip-rule="evenodd" fill="#B5C8FF" d="M44.224,326.865h398.028c2.694,0,4.898,2.909,4.898,6.463l0,0
					c0,3.554-2.206,6.464-4.898,6.464H41.012C41.781,335.373,42.858,331.056,44.224,326.865z"/>
				<path fill-rule="evenodd" clip-rule="evenodd" fill="#FFFFFF" d="M48.139,316.84H452.68c3.436,0,6.248,3.71,6.248,8.243v0.001
					c0,4.534-2.813,8.244-6.248,8.244H42.373C43.79,327.612,45.727,322.099,48.139,316.84z"/>
				<path fill-rule="evenodd" clip-rule="evenodd" fill="#B5C8FF" d="M359.983,316.839h13.001v16.489h-13.001V316.839
					L359.983,316.839z M434.034,316.839h7.272v16.489h-7.272V316.839L434.034,316.839z M408.527,316.839h14.543v16.489h-14.543
					V316.839L408.527,316.839z M393.585,316.839h3.376v16.489h-3.376V316.839L393.585,316.839z M379.739,316.839h6.753v16.489
					h-6.753V316.839z"/>
				<path fill-rule="evenodd" clip-rule="evenodd" fill="#B5C8FF" d="M46.96,319.517h112.832c2.043,0,3.714,2.205,3.714,4.901l0,0
					c0,2.694-1.672,4.9-3.714,4.9H43.461C44.451,325.971,45.618,322.699,46.96,319.517z"/>
			</g>
		</g>
		<g>
			<g>
				<path fill-rule="evenodd" clip-rule="evenodd" fill="#8E6B56" d="M117.961,269.657c0,0-6.705,10.648-7.362,16.17
					c-0.657,5.523,19.458,24.191,24.322,30.5c4.865,6.312-1.315,8.414-3.155,8.02c-1.84-0.395-35.102-26.557-37.205-30.369
					c-5.14-9.314,15.313-55.781,19.364-57.824C120.316,232.928,117.961,269.657,117.961,269.657z"/>
				<path fill-rule="evenodd" clip-rule="evenodd" fill="#1A1A18" d="M162.816,369.706l2.898,8.148c0,0-7.58,46.551-12.024,76.281
					h-24.063c-5.692-26.604-16.108-72.42-8.288-91.303C132.203,336.605,162.816,369.706,162.816,369.706z"/>
				<path fill-rule="evenodd" clip-rule="evenodd" fill="#302D28" d="M186.287,361.656l-1.211,7.785c0,0,1.662,56.176,2.351,84.694
					h-23.297c-8.121-24.722-25.811-73.194-19.783-94.126C152.24,332.602,186.287,361.656,186.287,361.656z"/>
				<path fill-rule="evenodd" clip-rule="evenodd" fill="#1A1A18" d="M182.674,454.136h-1.564c1.158-47.6-4.474-89.114-4.491-89.243
					c-0.056-0.428,0.246-0.82,0.674-0.877c0.428-0.055,0.82,0.246,0.876,0.674C178.186,364.819,183.831,406.429,182.674,454.136z"/>
				<path fill-rule="evenodd" clip-rule="evenodd" fill="#E9695B" d="M117.626,282.557c0,0,8.958,26.114,9.728,30.224
					c0.771,4.107-9.855,48.123-11.384,57.513c0,0-0.169,0.88,0.776,1.32c0,0,15.245-2.053,32.057-1.173
					c16.812,0.88,25.814,7.292,38.322,1.57c0,0,1.052-0.294,0.582-2.641c-0.471-2.349-9.552-44.192-9.277-55.93
					c0.112-4.752-0.03-12.583-0.231-20.454c-0.296-11.569,6.911-26.747,6.977-28.843c0.111-3.521-8.343-19.965-31.59-31.736
					C130.337,220.637,112.848,253.287,117.626,282.557z"/>
				<path fill-rule="evenodd" clip-rule="evenodd" fill="#D64C47" d="M117.626,282.557c0,0,0.605,1.764,1.513,4.443
					c0.376-0.504,0.816-0.928,1.306-1.111c1.66-0.623,6.102,0.54,13.615,0.084c7.513-0.456,16.436-5.189,21.002-12.909
					c4.566-7.721,17.101,11.539,17.433,12.535c0.333,0.996,2.408,8.053,2.242,14.361c-0.166,6.31,3.985,31.959,4.982,41.422
					c0.996,9.463,5.758,28.158,1.219,32.591c1.998-0.356,4.041-0.98,6.188-1.962c0,0,1.052-0.294,0.582-2.641
					c-0.471-2.349-9.552-44.192-9.276-55.93c0.111-4.752-0.031-12.583-0.232-20.454c-0.296-11.569,6.911-26.747,6.977-28.843
					c0.111-3.521-8.343-19.965-31.59-31.736C130.337,220.637,112.848,253.287,117.626,282.557L117.626,282.557z M127.259,312.332
					c1.063,0.762,2.373,1.576,3.399,1.822c2.075,0.499,11.705,0.415,10.459,1.494c-1.245,1.079-11.207,3.819-11.871,4.98
					c-0.664,1.163-1.162,11.623-0.589,33.353c0.212,8.023,2.542,13.108,5.398,16.335c-10.037,0.316-17.31,1.296-17.31,1.296
					c-0.945-0.44-0.775-1.32-0.775-1.32c1.528-9.39,12.154-53.405,11.383-57.513C127.331,312.651,127.298,312.503,127.259,312.332z"
					/>
				<path fill-rule="evenodd" clip-rule="evenodd" fill="#F5AC83" d="M170.087,171.142l3.04,9.052c0,0-1.93,30.351-5.173,34.945
					c-3.243,4.593-8.136,0.723-13.945-0.493c-5.81-1.217-5.54-10.403-5.945-13.105C147.659,198.839,151.712,174.114,170.087,171.142
					z"/>
				<path fill-rule="evenodd" clip-rule="evenodd" fill="#8E6B56" d="M150.833,241.443c11.489,22.312,34.856,59.619,39.876,64.617
					c2.331,2.321,4.268,3.862,6.633,5.202c2.727,1.546,6.023,2.825,11.146,4.726c9.563,3.549,29.571,9.84,32.021,9.608
					c2.45-0.23,3.16-5.472,2.329-6.943c-0.831-1.471-29.451-13.126-36.307-17.325c-6.856-4.199-18.996-40.574-23.919-51.313
					C170.069,222.653,139.344,219.132,150.833,241.443z"/>
				<path fill-rule="evenodd" clip-rule="evenodd" fill="#362A25" d="M172.23,185.507c14.065,0.419,12.73-25.28,3.932-31.717
					c-5.539-4.054-22.106,2.391-30.078,2.526c-7.971,0.135-30.855,1.662-29.233,38.14c0.592,13.332-1.521,23.126-4.694,31.256
					c-7.61,19.507-13.672,54.731,8.385,58.637c20.372,3.609,31.901-3.713,36.84-23.962c0,0,0.811-15.132,11.079-20.807
					c10.268-5.674,4.264-10.831-1.622-18.104c-5.886-7.274-10.538-10.944-9.188-20.941c1.351-9.998,10.472-3.535,14.189-14.983
					L172.23,185.507z"/>
				<path fill-rule="evenodd" clip-rule="evenodd" fill="#1A1A18" d="M172.23,185.507c7.926,0.235,10.961-7.823,10.526-16.054
					c-5.058,11.04-21.923,7.769-21.923,7.769c0.498,6.226-13.282,10.211-18.429,21.666c-5.147,11.456,8.428,42.555-4.815,66.078
					c-13.119,23.303-29.521,9.4-29.827,9.138c2.308,5.301,6.346,9.107,12.779,10.246c20.372,3.609,31.901-3.713,36.84-23.962
					c0,0,0.811-15.132,11.079-20.807c10.268-5.674,4.264-10.831-1.622-18.104c-5.886-7.274-10.538-10.944-9.188-20.941
					c1.351-9.998,10.472-3.535,14.189-14.983L172.23,185.507z"/>
				<path fill-rule="evenodd" clip-rule="evenodd" fill="#1A1A18" d="M156.083,200.52c-0.026-0.215,0.127-0.41,0.341-0.437
					c0.215-0.026,0.411,0.126,0.436,0.341c0.003,0.024,0.981,8.254,6.531,13.884c3.202,3.249,6.716,7.414,8.854,11.196
					c1.694,2.999,2.527,5.781,1.688,7.744c-0.085,0.199-0.314,0.291-0.513,0.206c-0.199-0.085-0.292-0.314-0.207-0.514
					c0.73-1.707-0.067-4.256-1.648-7.054c-2.097-3.712-5.566-7.819-8.731-11.03C157.095,209.033,156.086,200.543,156.083,200.52z"/>
				<path fill-rule="evenodd" clip-rule="evenodd" fill="#1A1A18" d="M181.572,166.995c-0.034-0.213,0.111-0.413,0.325-0.447
					c0.213-0.034,0.414,0.111,0.447,0.324c0.011,0.066,3.854,23.006-12.981,20.37c-0.213-0.032-0.359-0.232-0.326-0.445
					c0.033-0.214,0.233-0.36,0.446-0.327C185.245,188.938,181.581,167.057,181.572,166.995z"/>
			</g>
			<g>
				<path fill-rule="evenodd" clip-rule="evenodd" fill="#F5AC83" d="M300.518,364.507c2.25,4.64,8.679,16.216,6.182,22.513
					c-0.785,1.979-2.697,3.174-3.171,2.76c-0.383-0.335-0.088-1.827-0.088-1.827c-0.983,2.171-1.463,2.026-3.28,1.307
					c-0.53-0.21,0.502-1.356,0.655-2.335c0,0-0.249,1.847-1.727,2.168c-0.381,0.084-2.536-0.088-2.181-0.436
					c1.54-1.516,1.138-2.863,1.138-2.863c0.045,1.45-1.6,2.718-2.154,2.908c-1.308,0.446-4.234-3.415-2.912-3.973
					c0.579-0.244,2.697,1.709,2.164,0.614c-0.348-0.714-0.582-1.586-0.862-2.54c-0.973-3.311-0.954-2.622-1.587-4.653
					c-0.29-0.935,0.747-4.475,0.537-5.224c-1.007-3.6-2.464-10.431-2.464-10.431L300.518,364.507z"/>
				<path fill-rule="evenodd" clip-rule="evenodd" fill="#B56B41" d="M220.72,352.303l-4.605,17.995c0,0-4.368,41.986-8.698,83.838
					h33.549c6.705-29.25,12.174-53.209,13.562-58.851C258.617,378.672,258.612,353.522,220.72,352.303z"/>
				<path fill-rule="evenodd" clip-rule="evenodd" fill="#F5AC83" d="M264.058,160.756l3.578,10.229c0,0-0.954,28.346-4.569,33.605
					c-3.615,5.258-10.419,4.949-17.029,3.651c-6.61-1.299-6.049-9.616-6.547-12.677
					C238.993,192.504,243.247,164.387,264.058,160.756z"/>
				<path fill-rule="evenodd" clip-rule="evenodd" fill="#ED7862" d="M245.622,195.335l7.012,1.719c0,0-3.957,22.167-5.018,23.1
					c-1.063,0.933-22.652-2.557-23.603-5.077c-0.951-2.518,1.829-7.231,2.322-10.687c0.494-3.456,1.676-7.075,1.676-7.075
					L245.622,195.335z"/>
				<path fill-rule="evenodd" clip-rule="evenodd" fill="#FFFFFF" d="M248.715,216.708c0,0,1.207,0.773,1.298,1.96
					c0.061,0.785,0.307,2.93,0.465,4.29c0.081,0.694,0.139,1.185,0.139,1.185s-1.241,1.895-7.694,0.901
					c-6.453-0.994-18.53-4.142-19.462-5.05c-0.931-0.909,0.364-6.438,0.364-6.438S240.292,216.95,248.715,216.708z"/>
				<path fill-rule="evenodd" clip-rule="evenodd" fill="#FFFFFF" d="M206.567,235.867c0,0-5.253,5.438-8.092,13.831
					c-2.839,8.392-7.629,51.81-8.087,57.388c-0.458,5.577,26.851,41.141,27.602,41.849c0,0,0.277,0.554,1.452-0.121
					c1.175-0.676,5.109-4.235,4.886-5.986c-0.223-1.75-20.202-29.151-20.738-35.57c-0.535-6.418,18.217-44.425,18.827-51.862
					C223.028,247.958,213.52,231.497,206.567,235.867z"/>
				<path fill-rule="evenodd" clip-rule="evenodd" fill="#D58750" d="M281.299,364.973l6.818,5.432c0,0-1.284,38.936-2.887,83.731
					h-30.679c-1.533-18.558-2.933-32.997-3.903-37.794c-3.593-17.744-12.854-47.381-11.123-56.297
					C241.254,351.129,281.299,364.973,281.299,364.973z"/>
				<path fill-rule="evenodd" clip-rule="evenodd" fill="#B56B41" d="M281.299,364.973l1.035,0.823
					c-0.072,5.915-0.543,44.272-1.162,88.34h-2.089c0.673-47.808,1.169-88.912,1.172-89.176c0.001-0.112,0.02-0.22,0.055-0.321
					C280.947,364.851,281.299,364.973,281.299,364.973z"/>
				<path fill-rule="evenodd" clip-rule="evenodd" fill="#472E17" d="M250.48,223.094c0,0,19.714,6.092,21.44,9.238
					c1.726,3.146,7.611,32.693,8.057,68.801c0.446,36.108,8.782,65.467,9.175,72.43c0,0-0.21,1.509-0.974,1.835
					c0,0-5.732,1.497-23.067,0.998c-17.335-0.499-40.678-3.142-48.935-1.139c0,0-1.754,0.735-2.172-2.031
					c-0.417-2.768,8.755-48.497,8.521-67.501c-0.235-19.005-19.595-59.156-20.095-62.476c-0.501-3.32,13.774-19.445,20.734-24.055
					L250.48,223.094z"/>
				<path fill-rule="evenodd" clip-rule="evenodd" fill="#342000" d="M231.876,374.647c-6.736-0.246-12.414-0.185-15.7,0.611
					c0,0-1.754,0.735-2.172-2.031c-0.417-2.768,8.755-48.497,8.521-67.501c-0.235-19.005-19.595-59.156-20.095-62.476
					c-0.501-3.32,13.774-19.445,20.734-24.055l2.292,0.328c-3.393,2.951-10.738,9.554-12.948,13.279
					c-2.905,4.898,1.743,22.413,4.898,31.876c3.154,9.464,9.961,31.047,10.792,32.872c0.83,1.827,4.649,2.491,6.807,3.652
					c2.158,1.163-3.984,2.325-5.147,4.483C228.958,307.358,231.042,349.733,231.876,374.647z"/>
				<path fill-rule="evenodd" clip-rule="evenodd" fill="#FFFFFF" d="M272.177,232.117c1.535,1.733,3.863,5.332,5.642,12.36
					c2.902,11.465,8.472,52.65,12.382,71.312c3.911,18.661,12.553,47.844,12.571,49.377c0.019,1.534-1.185,3.39-2.404,3.941
					c-1.221,0.552-4.727,2.204-5.798,2.448c-1.07,0.243-2.452,0.106-3.075-0.652c-0.622-0.759-13.118-31.506-17.976-52.301
					c-3.635-15.564-12.172-47.959-15.273-64.418C255.776,241.081,266.092,225.249,272.177,232.117z"/>
				<path fill-rule="evenodd" clip-rule="evenodd" fill="#1A1A18" d="M267.636,170.986c0,0,4.11-1.589,6.111-4.327
					c2.001-2.738-2.104-20.626-4.548-23.803c-2.443-3.175-10.321,2.901-13.833,3.067c-3.512,0.166-31.59-18.125-33.834,10.835
					c0,0-0.604-1.441-2.209-1.606c-1.606-0.165-1.444,2.915,0.724,3.751c0,0-4.321,4.554-3.988,11.578
					c0.333,7.023,10.218,29.106,10.277,33.909c0,0,13.775,2.162,18.409,0.35c4.635-1.812,8.441-7.291,8.416-9.367
					c-0.026-2.077-0.03-2.447-0.039-3.125c-0.008-0.679-0.23-2-1.12-4.179c-0.89-2.177-1.922-4.991-0.716-6.351
					c1.206-1.36,5.154-1.194,5.964,4.499c0,0,0.091,0.461,0.384,0.457c0.293-0.003,0.35-0.344,0.344-0.86
					c-0.007-0.516-0.478-5.784-0.495-6.616c0,0,4.397-7.45,4.043-11.206C261.525,167.994,264.95,170.818,267.636,170.986z"/>
				<path fill-rule="evenodd" clip-rule="evenodd" fill="#362A25" d="M273.054,154.512c-1.082-5.076-2.665-10.11-3.855-11.655
					c-2.443-3.175-10.321,2.901-13.833,3.067c-3.512,0.166-31.589-18.125-33.834,10.836c0,0-0.604-1.442-2.209-1.607
					c-1.606-0.165-1.444,2.916,0.724,3.751c0,0-4.033,4.252-4.005,10.875c1.671,2.999,4.94,6.044,11.287,7.357
					c14.444,2.988,28.141-15.109,29.055-18.761c0,0,0.166-0.913,0.789-0.332C257.793,158.624,271.419,166.085,273.054,154.512z"/>
				<path fill-rule="evenodd" clip-rule="evenodd" fill="#1A1A18" d="M267.025,170.206c-0.184-0.055-0.378,0.051-0.432,0.235
					c-0.054,0.185,0.052,0.379,0.236,0.433c0.009,0.003,2.926,0.928,7.16-2.442c0.15-0.119,0.176-0.339,0.057-0.49
					c-0.12-0.15-0.339-0.175-0.49-0.056C269.609,171.027,267.033,170.206,267.025,170.206z"/>
				<path fill-rule="evenodd" clip-rule="evenodd" fill="#362A25" d="M221.714,157.893c0.063,0.182,0.263,0.276,0.445,0.213
					c0.182-0.064,0.277-0.264,0.213-0.445c-0.007-0.019-2.553-6.833,2.856-14.828c0.108-0.16,0.066-0.377-0.093-0.485
					c-0.16-0.107-0.377-0.066-0.485,0.092C219.04,150.733,221.706,157.872,221.714,157.893z"/>
				<path fill-rule="evenodd" clip-rule="evenodd" fill="#ED7862" d="M295.761,380.259c-0.577-3.554,0-7.011,0.96-7.011
					c0.764,0,4.02-1.945,6.044-4.19c-0.255-0.531-0.505-1.043-0.746-1.529c-0.45,0.714-1.049,1.306-1.652,1.579
					c-1.221,0.552-4.727,2.204-5.798,2.448c-0.53,0.12-1.137,0.147-1.69,0.053c0.121,0.47,0.239,0.914,0.352,1.316
					c0.21,0.749-0.828,4.289-0.537,5.224c0.633,2.031,0.614,1.343,1.587,4.653c0.28,0.954,0.515,1.826,0.862,2.54
					c0.534,1.095-1.585-0.858-2.164-0.614c-0.188,0.079-0.29,0.226-0.323,0.415c1.169,1.247,2.812,2.554,3.536,2.175
					C297.202,386.788,296.337,383.811,295.761,380.259z"/>
			</g>
		</g>
		<g>
			<path fill-rule="evenodd" clip-rule="evenodd" fill="#2261FF" d="M568.375,323.223c21.108-11.219,26.467,13.191,18.259,33.404
				c-6.676,16.44-35.779,64.485-47.592,96.355h-11.417C527.141,408.815,543.797,336.285,568.375,323.223z"/>
			<g>
				<path fill-rule="evenodd" clip-rule="evenodd" fill="#1FD0FF" d="M523.682,230.612c-24.203-21.791-39.336,8.71-35.151,38.136
					c4.184,29.425,37.425,133.183,31.44,169.55c-2.32,14.097,0.633,13.23,5.254,4.094
					C548.276,396.817,556.999,260.609,523.682,230.612z"/>
				<path fill-rule="evenodd" clip-rule="evenodd" fill="#B5C8FF" d="M519.465,448.403c0.518,1.352,1.668,0.681,3.21-1.567
					c25.225-84.026-14.07-209.571-14.194-209.974c-0.214-0.691-0.948-1.079-1.64-0.865c-0.691,0.213-1.079,0.948-0.866,1.64
					C506.1,238.04,545.931,365.298,519.465,448.403z"/>
			</g>
			<g>
				<path fill-rule="evenodd" clip-rule="evenodd" fill="#2955C1" d="M470.819,300.426c-23.453-10.208-27.134,16.279-16.693,37.156
					c10.083,20.164,57.611,85.228,64.986,115.4h6.082C528.405,410.339,501.873,313.943,470.819,300.426z"/>
				<path fill-rule="evenodd" clip-rule="evenodd" fill="#B5C8FF" d="M523.308,452.982c-6.536-67.004-62.071-143.858-62.257-144.116
					c-0.33-0.463-0.974-0.567-1.436-0.237c-0.462,0.331-0.567,0.976-0.236,1.436c0.184,0.257,55.358,76.611,61.882,142.917H523.308z
					"/>
			</g>
			<path fill-rule="evenodd" clip-rule="evenodd" fill="#0B51FF" d="M492.077,434.683h68.582c2.051,0,3.729,1.68,3.729,3.73v14.569
				h-76.041v-14.569C488.348,436.362,490.026,434.683,492.077,434.683z"/>
			<path fill-rule="evenodd" clip-rule="evenodd" fill="#7A9EF9" d="M491.324,434.683h54.741c1.637,0,2.977,1.68,2.977,3.73v14.569
				h-60.694v-14.569C488.348,436.362,489.688,434.683,491.324,434.683z"/>
		</g>
		<path fill-rule="evenodd" clip-rule="evenodd" fill="#1054FF" d="M672.944,460H63.516c-2.738,0-4.978-2.241-4.978-4.98l0,0
			c0-2.739,2.24-4.98,4.978-4.98h609.429c2.737,0,4.979,2.241,4.979,4.98l0,0C677.923,457.759,675.682,460,672.944,460z"/>
	</g>
</g>
<g id="DESIGNED_BY_FREEPIK">
</g>
</svg>
